<svg xmlns="http://www.w3.org/2000/svg" xmlns:xlink="http://www.w3.org/1999/xlink" width="962.704" height="652.047" viewBox="0 0 722.028 489.035"><defs><style>*{stroke-linejoin:round;stroke-linecap:butt}</style></defs><g id="figure_1"><path id="patch_1" d="M0 489.035h722.028V0H0z" style="fill:#fff"/><g id="axes_1"><path id="patch_2" d="M41.988 421.635h672.84v-378H41.988z" style="fill:#fff"/><g id="matplotlib.axis_1"><g id="xtick_1"><path id="line2d_1" d="M88.073 421.635v-378" clip-path="url(#p7f5670df3d)" style="fill:none;stroke-dasharray:2.59,1.12;stroke-dashoffset:0;stroke:#8a8a8a;stroke-opacity:.6;stroke-width:.7"/><g id="line2d_2"><defs><path id="mcc3147238d" d="M0 0v-5" style="stroke:#222;stroke-width:.8"/></defs><use xlink:href="#mcc3147238d" x="88.073" y="421.635" style="fill:#222;stroke:#222;stroke-width:.8"/></g><g id="text_1" style="fill:#222" transform="matrix(.1 0 0 -.1 81.71 432.734)"><defs><path id="DejaVuSerif-37" d="M3609 4347 1784 0h-465l1740 4153H903v-575H538v1088h3071z" transform="scale(.01563)"/><path id="DejaVuSerif-30" d="M2034 219q479 0 716 525 238 525 238 1584 0 1063-238 1588-237 525-716 525-478 0-716-525-237-525-237-1588 0-1059 237-1584 238-525 716-525m0-310q-759 0-1186 637-426 638-426 1782 0 1147 426 1784 427 638 1186 638 763 0 1188-638 425-637 425-1784 0-1144-425-1782Q2797-91 2034-91" transform="scale(.01563)"/></defs><use xlink:href="#DejaVuSerif-37"/><use xlink:href="#DejaVuSerif-30" transform="translate(63.623)"/></g></g><g id="xtick_2"><path id="line2d_3" d="M180.243 421.635v-378" clip-path="url(#p7f5670df3d)" style="fill:none;stroke-dasharray:2.59,1.12;stroke-dashoffset:0;stroke:#8a8a8a;stroke-opacity:.6;stroke-width:.7"/><use xlink:href="#mcc3147238d" id="line2d_4" x="180.243" y="421.635" style="fill:#222;stroke:#222;stroke-width:.8"/><g id="text_2" style="fill:#222" transform="matrix(.1 0 0 -.1 173.88 432.734)"><defs><path id="DejaVuSerif-38" d="M2981 1275q0 500-249 776-248 277-698 277t-698-277q-248-276-248-776 0-503 248-780 248-276 698-276t698 276q249 277 249 780m-128 2266q0 425-216 662-215 238-603 238-384 0-601-238-217-237-217-662 0-428 217-666 217-237 601-237 388 0 603 237 216 238 216 666m-337-1057q531-71 828-392 297-320 297-817 0-656-416-1011T2034-91q-771 0-1189 355-417 355-417 1011 0 497 297 817 297 321 831 392-472 85-724 358-251 274-251 699 0 562 387 885 388 324 1066 324 679 0 1066-324 388-323 388-885 0-425-252-699-252-273-720-358" transform="scale(.01563)"/></defs><use xlink:href="#DejaVuSerif-38"/><use xlink:href="#DejaVuSerif-30" transform="translate(63.623)"/></g></g><g id="xtick_3"><path id="line2d_5" d="M272.413 421.635v-378" clip-path="url(#p7f5670df3d)" style="fill:none;stroke-dasharray:2.59,1.12;stroke-dashoffset:0;stroke:#8a8a8a;stroke-opacity:.6;stroke-width:.7"/><use xlink:href="#mcc3147238d" id="line2d_6" x="272.413" y="421.635" style="fill:#222;stroke:#222;stroke-width:.8"/><g id="text_3" style="fill:#222" transform="matrix(.1 0 0 -.1 266.05 432.734)"><defs><path id="DejaVuSerif-39" d="M2994 2091q-210-235-482-351-271-115-612-115-694 0-1096 419-401 419-401 1144 0 709 436 1135 436 427 1164 427 791 0 1214-589 424-589 424-1683 0-1225-504-1897Q2634-91 1722-91q-247 0-519 47T647 97v775h350q41-316 244-485 203-168 543-168 607 0 903 457 297 458 307 1415M1978 4441q-444 0-680-324-235-323-235-929 0-607 235-932 236-325 680-325t680 314 236 905q0 622-238 956-237 335-678 335" transform="scale(.01563)"/></defs><use xlink:href="#DejaVuSerif-39"/><use xlink:href="#DejaVuSerif-30" transform="translate(63.623)"/></g></g><g id="xtick_4"><path id="line2d_7" d="M364.583 421.635v-378" clip-path="url(#p7f5670df3d)" style="fill:none;stroke-dasharray:2.59,1.12;stroke-dashoffset:0;stroke:#8a8a8a;stroke-opacity:.6;stroke-width:.7"/><use xlink:href="#mcc3147238d" id="line2d_8" x="364.583" y="421.635" style="fill:#222;stroke:#222;stroke-width:.8"/><g id="text_4" style="fill:#222" transform="matrix(.1 0 0 -.1 355.039 432.734)"><defs><path id="DejaVuSerif-31" d="M909 0v331h813v3882l-941-610v410l1138 737h431V331h813V0z" transform="scale(.01563)"/></defs><use xlink:href="#DejaVuSerif-31"/><use xlink:href="#DejaVuSerif-30" transform="translate(63.623)"/><use xlink:href="#DejaVuSerif-30" transform="translate(127.246)"/></g></g><g id="xtick_5"><path id="line2d_9" d="M456.753 421.635v-378" clip-path="url(#p7f5670df3d)" style="fill:none;stroke-dasharray:2.59,1.12;stroke-dashoffset:0;stroke:#8a8a8a;stroke-opacity:.6;stroke-width:.7"/><use xlink:href="#mcc3147238d" id="line2d_10" x="456.753" y="421.635" style="fill:#222;stroke:#222;stroke-width:.8"/><g id="text_5" style="fill:#222" transform="matrix(.1 0 0 -.1 447.209 432.734)"><use xlink:href="#DejaVuSerif-31"/><use xlink:href="#DejaVuSerif-31" transform="translate(63.623)"/><use xlink:href="#DejaVuSerif-30" transform="translate(127.246)"/></g></g><g id="xtick_6"><path id="line2d_11" d="M548.922 421.635v-378" clip-path="url(#p7f5670df3d)" style="fill:none;stroke-dasharray:2.59,1.12;stroke-dashoffset:0;stroke:#8a8a8a;stroke-opacity:.6;stroke-width:.7"/><use xlink:href="#mcc3147238d" id="line2d_12" x="548.922" y="421.635" style="fill:#222;stroke:#222;stroke-width:.8"/><g id="text_6" style="fill:#222" transform="matrix(.1 0 0 -.1 539.379 432.734)"><defs><path id="DejaVuSerif-32" d="M819 3553H469v831q334 179 673 272 339 94 664 94 728 0 1150-353t422-959q0-685-956-1638-75-72-113-109L1131 513h1947v575h366V0H434v341l1416 1412q469 469 669 861t200 824q0 471-246 737-245 266-676 266-447 0-691-222-243-222-287-666" transform="scale(.01563)"/></defs><use xlink:href="#DejaVuSerif-31"/><use xlink:href="#DejaVuSerif-32" transform="translate(63.623)"/><use xlink:href="#DejaVuSerif-30" transform="translate(127.246)"/></g></g><g id="xtick_7"><path id="line2d_13" d="M641.092 421.635v-378" clip-path="url(#p7f5670df3d)" style="fill:none;stroke-dasharray:2.59,1.12;stroke-dashoffset:0;stroke:#8a8a8a;stroke-opacity:.6;stroke-width:.7"/><use xlink:href="#mcc3147238d" id="line2d_14" x="641.092" y="421.635" style="fill:#222;stroke:#222;stroke-width:.8"/><g id="text_7" style="fill:#222" transform="matrix(.1 0 0 -.1 631.548 432.734)"><defs><path id="DejaVuSerif-33" d="M622 4469q366 137 701 209 336 72 630 72 685 0 1069-296 384-295 384-820 0-421-266-704-265-283-752-383 575-81 892-417t317-871q0-653-439-1002Q2719-91 1894-91q-366 0-715 79-348 78-691 237v906h350q31-450 303-681t765-231q478 0 755 276 277 277 277 758 0 550-285 833-284 283-834 283h-297v319h156q547 0 820 226 274 227 274 683 0 409-225 626-225 218-647 218t-655-200q-232-200-273-594H622z" transform="scale(.01563)"/></defs><use xlink:href="#DejaVuSerif-31"/><use xlink:href="#DejaVuSerif-33" transform="translate(63.623)"/><use xlink:href="#DejaVuSerif-30" transform="translate(127.246)"/></g></g><g id="xtick_8"><path id="line2d_15" d="M51.205 421.635v-378" clip-path="url(#p7f5670df3d)" style="fill:none;stroke-dasharray:.5,.825;stroke-dashoffset:0;stroke:#b0b0b0;stroke-opacity:.4;stroke-width:.5"/><g id="line2d_16"><defs><path id="m009b0c8969" d="M0 0v-2.5" style="stroke:#222;stroke-width:.6"/></defs><use xlink:href="#m009b0c8969" x="51.205" y="421.635" style="fill:#222;stroke:#222;stroke-width:.6"/></g></g><g id="xtick_9"><path id="line2d_17" d="M69.64 421.635v-378" clip-path="url(#p7f5670df3d)" style="fill:none;stroke-dasharray:.5,.825;stroke-dashoffset:0;stroke:#b0b0b0;stroke-opacity:.4;stroke-width:.5"/><use xlink:href="#m009b0c8969" id="line2d_18" x="69.639" y="421.635" style="fill:#222;stroke:#222;stroke-width:.6"/></g><g id="xtick_10"><path id="line2d_19" d="M106.507 421.635v-378" clip-path="url(#p7f5670df3d)" style="fill:none;stroke-dasharray:.5,.825;stroke-dashoffset:0;stroke:#b0b0b0;stroke-opacity:.4;stroke-width:.5"/><use xlink:href="#m009b0c8969" id="line2d_20" x="106.507" y="421.635" style="fill:#222;stroke:#222;stroke-width:.6"/></g><g id="xtick_11"><path id="line2d_21" d="M124.941 421.635v-378" clip-path="url(#p7f5670df3d)" style="fill:none;stroke-dasharray:.5,.825;stroke-dashoffset:0;stroke:#b0b0b0;stroke-opacity:.4;stroke-width:.5"/><use xlink:href="#m009b0c8969" id="line2d_22" x="124.941" y="421.635" style="fill:#222;stroke:#222;stroke-width:.6"/></g><g id="xtick_12"><path id="line2d_23" d="M143.375 421.635v-378" clip-path="url(#p7f5670df3d)" style="fill:none;stroke-dasharray:.5,.825;stroke-dashoffset:0;stroke:#b0b0b0;stroke-opacity:.4;stroke-width:.5"/><use xlink:href="#m009b0c8969" id="line2d_24" x="143.375" y="421.635" style="fill:#222;stroke:#222;stroke-width:.6"/></g><g id="xtick_13"><path id="line2d_25" d="M161.809 421.635v-378" clip-path="url(#p7f5670df3d)" style="fill:none;stroke-dasharray:.5,.825;stroke-dashoffset:0;stroke:#b0b0b0;stroke-opacity:.4;stroke-width:.5"/><use xlink:href="#m009b0c8969" id="line2d_26" x="161.809" y="421.635" style="fill:#222;stroke:#222;stroke-width:.6"/></g><g id="xtick_14"><path id="line2d_27" d="M198.677 421.635v-378" clip-path="url(#p7f5670df3d)" style="fill:none;stroke-dasharray:.5,.825;stroke-dashoffset:0;stroke:#b0b0b0;stroke-opacity:.4;stroke-width:.5"/><use xlink:href="#m009b0c8969" id="line2d_28" x="198.677" y="421.635" style="fill:#222;stroke:#222;stroke-width:.6"/></g><g id="xtick_15"><path id="line2d_29" d="M217.11 421.635v-378" clip-path="url(#p7f5670df3d)" style="fill:none;stroke-dasharray:.5,.825;stroke-dashoffset:0;stroke:#b0b0b0;stroke-opacity:.4;stroke-width:.5"/><use xlink:href="#m009b0c8969" id="line2d_30" x="217.111" y="421.635" style="fill:#222;stroke:#222;stroke-width:.6"/></g><g id="xtick_16"><path id="line2d_31" d="M235.545 421.635v-378" clip-path="url(#p7f5670df3d)" style="fill:none;stroke-dasharray:.5,.825;stroke-dashoffset:0;stroke:#b0b0b0;stroke-opacity:.4;stroke-width:.5"/><use xlink:href="#m009b0c8969" id="line2d_32" x="235.545" y="421.635" style="fill:#222;stroke:#222;stroke-width:.6"/></g><g id="xtick_17"><path id="line2d_33" d="M253.979 421.635v-378" clip-path="url(#p7f5670df3d)" style="fill:none;stroke-dasharray:.5,.825;stroke-dashoffset:0;stroke:#b0b0b0;stroke-opacity:.4;stroke-width:.5"/><use xlink:href="#m009b0c8969" id="line2d_34" x="253.979" y="421.635" style="fill:#222;stroke:#222;stroke-width:.6"/></g><g id="xtick_18"><path id="line2d_35" d="M290.847 421.635v-378" clip-path="url(#p7f5670df3d)" style="fill:none;stroke-dasharray:.5,.825;stroke-dashoffset:0;stroke:#b0b0b0;stroke-opacity:.4;stroke-width:.5"/><use xlink:href="#m009b0c8969" id="line2d_36" x="290.847" y="421.635" style="fill:#222;stroke:#222;stroke-width:.6"/></g><g id="xtick_19"><path id="line2d_37" d="M309.28 421.635v-378" clip-path="url(#p7f5670df3d)" style="fill:none;stroke-dasharray:.5,.825;stroke-dashoffset:0;stroke:#b0b0b0;stroke-opacity:.4;stroke-width:.5"/><use xlink:href="#m009b0c8969" id="line2d_38" x="309.281" y="421.635" style="fill:#222;stroke:#222;stroke-width:.6"/></g><g id="xtick_20"><path id="line2d_39" d="M327.715 421.635v-378" clip-path="url(#p7f5670df3d)" style="fill:none;stroke-dasharray:.5,.825;stroke-dashoffset:0;stroke:#b0b0b0;stroke-opacity:.4;stroke-width:.5"/><use xlink:href="#m009b0c8969" id="line2d_40" x="327.715" y="421.635" style="fill:#222;stroke:#222;stroke-width:.6"/></g><g id="xtick_21"><path id="line2d_41" d="M346.149 421.635v-378" clip-path="url(#p7f5670df3d)" style="fill:none;stroke-dasharray:.5,.825;stroke-dashoffset:0;stroke:#b0b0b0;stroke-opacity:.4;stroke-width:.5"/><use xlink:href="#m009b0c8969" id="line2d_42" x="346.149" y="421.635" style="fill:#222;stroke:#222;stroke-width:.6"/></g><g id="xtick_22"><path id="line2d_43" d="M383.017 421.635v-378" clip-path="url(#p7f5670df3d)" style="fill:none;stroke-dasharray:.5,.825;stroke-dashoffset:0;stroke:#b0b0b0;stroke-opacity:.4;stroke-width:.5"/><use xlink:href="#m009b0c8969" id="line2d_44" x="383.017" y="421.635" style="fill:#222;stroke:#222;stroke-width:.6"/></g><g id="xtick_23"><path id="line2d_45" d="M401.45 421.635v-378" clip-path="url(#p7f5670df3d)" style="fill:none;stroke-dasharray:.5,.825;stroke-dashoffset:0;stroke:#b0b0b0;stroke-opacity:.4;stroke-width:.5"/><use xlink:href="#m009b0c8969" id="line2d_46" x="401.451" y="421.635" style="fill:#222;stroke:#222;stroke-width:.6"/></g><g id="xtick_24"><path id="line2d_47" d="M419.885 421.635v-378" clip-path="url(#p7f5670df3d)" style="fill:none;stroke-dasharray:.5,.825;stroke-dashoffset:0;stroke:#b0b0b0;stroke-opacity:.4;stroke-width:.5"/><use xlink:href="#m009b0c8969" id="line2d_48" x="419.885" y="421.635" style="fill:#222;stroke:#222;stroke-width:.6"/></g><g id="xtick_25"><path id="line2d_49" d="M438.319 421.635v-378" clip-path="url(#p7f5670df3d)" style="fill:none;stroke-dasharray:.5,.825;stroke-dashoffset:0;stroke:#b0b0b0;stroke-opacity:.4;stroke-width:.5"/><use xlink:href="#m009b0c8969" id="line2d_50" x="438.319" y="421.635" style="fill:#222;stroke:#222;stroke-width:.6"/></g><g id="xtick_26"><path id="line2d_51" d="M475.186 421.635v-378" clip-path="url(#p7f5670df3d)" style="fill:none;stroke-dasharray:.5,.825;stroke-dashoffset:0;stroke:#b0b0b0;stroke-opacity:.4;stroke-width:.5"/><use xlink:href="#m009b0c8969" id="line2d_52" x="475.186" y="421.635" style="fill:#222;stroke:#222;stroke-width:.6"/></g><g id="xtick_27"><path id="line2d_53" d="M493.62 421.635v-378" clip-path="url(#p7f5670df3d)" style="fill:none;stroke-dasharray:.5,.825;stroke-dashoffset:0;stroke:#b0b0b0;stroke-opacity:.4;stroke-width:.5"/><use xlink:href="#m009b0c8969" id="line2d_54" x="493.62" y="421.635" style="fill:#222;stroke:#222;stroke-width:.6"/></g><g id="xtick_28"><path id="line2d_55" d="M512.054 421.635v-378" clip-path="url(#p7f5670df3d)" style="fill:none;stroke-dasharray:.5,.825;stroke-dashoffset:0;stroke:#b0b0b0;stroke-opacity:.4;stroke-width:.5"/><use xlink:href="#m009b0c8969" id="line2d_56" x="512.054" y="421.635" style="fill:#222;stroke:#222;stroke-width:.6"/></g><g id="xtick_29"><path id="line2d_57" d="M530.488 421.635v-378" clip-path="url(#p7f5670df3d)" style="fill:none;stroke-dasharray:.5,.825;stroke-dashoffset:0;stroke:#b0b0b0;stroke-opacity:.4;stroke-width:.5"/><use xlink:href="#m009b0c8969" id="line2d_58" x="530.488" y="421.635" style="fill:#222;stroke:#222;stroke-width:.6"/></g><g id="xtick_30"><path id="line2d_59" d="M567.356 421.635v-378" clip-path="url(#p7f5670df3d)" style="fill:none;stroke-dasharray:.5,.825;stroke-dashoffset:0;stroke:#b0b0b0;stroke-opacity:.4;stroke-width:.5"/><use xlink:href="#m009b0c8969" id="line2d_60" x="567.356" y="421.635" style="fill:#222;stroke:#222;stroke-width:.6"/></g><g id="xtick_31"><path id="line2d_61" d="M585.79 421.635v-378" clip-path="url(#p7f5670df3d)" style="fill:none;stroke-dasharray:.5,.825;stroke-dashoffset:0;stroke:#b0b0b0;stroke-opacity:.4;stroke-width:.5"/><use xlink:href="#m009b0c8969" id="line2d_62" x="585.79" y="421.635" style="fill:#222;stroke:#222;stroke-width:.6"/></g><g id="xtick_32"><path id="line2d_63" d="M604.224 421.635v-378" clip-path="url(#p7f5670df3d)" style="fill:none;stroke-dasharray:.5,.825;stroke-dashoffset:0;stroke:#b0b0b0;stroke-opacity:.4;stroke-width:.5"/><use xlink:href="#m009b0c8969" id="line2d_64" x="604.224" y="421.635" style="fill:#222;stroke:#222;stroke-width:.6"/></g><g id="xtick_33"><path id="line2d_65" d="M622.658 421.635v-378" clip-path="url(#p7f5670df3d)" style="fill:none;stroke-dasharray:.5,.825;stroke-dashoffset:0;stroke:#b0b0b0;stroke-opacity:.4;stroke-width:.5"/><use xlink:href="#m009b0c8969" id="line2d_66" x="622.658" y="421.635" style="fill:#222;stroke:#222;stroke-width:.6"/></g><g id="xtick_34"><path id="line2d_67" d="M659.526 421.635v-378" clip-path="url(#p7f5670df3d)" style="fill:none;stroke-dasharray:.5,.825;stroke-dashoffset:0;stroke:#b0b0b0;stroke-opacity:.4;stroke-width:.5"/><use xlink:href="#m009b0c8969" id="line2d_68" x="659.526" y="421.635" style="fill:#222;stroke:#222;stroke-width:.6"/></g><g id="xtick_35"><path id="line2d_69" d="M677.96 421.635v-378" clip-path="url(#p7f5670df3d)" style="fill:none;stroke-dasharray:.5,.825;stroke-dashoffset:0;stroke:#b0b0b0;stroke-opacity:.4;stroke-width:.5"/><use xlink:href="#m009b0c8969" id="line2d_70" x="677.96" y="421.635" style="fill:#222;stroke:#222;stroke-width:.6"/></g><g id="xtick_36"><path id="line2d_71" d="M696.394 421.635v-378" clip-path="url(#p7f5670df3d)" style="fill:none;stroke-dasharray:.5,.825;stroke-dashoffset:0;stroke:#b0b0b0;stroke-opacity:.4;stroke-width:.5"/><use xlink:href="#m009b0c8969" id="line2d_72" x="696.394" y="421.635" style="fill:#222;stroke:#222;stroke-width:.6"/></g><g id="xtick_37"><path id="line2d_73" d="M714.828 421.635v-378" clip-path="url(#p7f5670df3d)" style="fill:none;stroke-dasharray:.5,.825;stroke-dashoffset:0;stroke:#b0b0b0;stroke-opacity:.4;stroke-width:.5"/><use xlink:href="#m009b0c8969" id="line2d_74" x="714.828" y="421.635" style="fill:#222;stroke:#222;stroke-width:.6"/></g><g id="text_8" transform="matrix(.115 0 0 -.115 203.55 447.553)"><defs><path id="DejaVuSerif-Bold-43" d="M4769 1331q-185-722-663-1072T2822-91Q1641-91 955 561T269 2328q0 1119 686 1770 686 652 1867 652 416 0 866-100t953-303V3200h-397q-122 588-444 880t-850 292q-681 0-1013-502-331-501-331-1542 0-1040 331-1540 332-500 1019-500 466 0 761 259 296 259 430 784z" transform="scale(.01563)"/><path id="DejaVuSerif-Bold-6f" d="M2138 263q350 0 492 300t142 1100-141 1098q-140 298-493 298-354 0-498-302-143-301-143-1094 0-794 143-1097 144-303 498-303m0-354q-879 0-1377 467-498 468-498 1287 0 821 498 1285 498 465 1377 465 881 0 1378-465 497-464 497-1285 0-819-499-1287Q3016-91 2138-91" transform="scale(.01563)"/><path id="DejaVuSerif-Bold-6d" d="M3884 2778q232 331 500 483 269 152 629 152 571 0 854-324 283-323 283-976V378h475V0H4647v378h397v1569q0 622-96 784-95 163-354 163-294 0-457-227-162-226-162-645V378h397V0H2472v378h397v1569q0 622-97 784-97 163-353 163-297 0-460-227-162-226-162-645V378h397V0H219v378h472v2566H219v378h1578v-469q194 291 444 425 250 135 593 135 407 0 660-155t390-480" transform="scale(.01563)"/><path id="DejaVuSerif-Bold-70" d="M1728 1825v-328q0-581 148-841 149-259 480-259 341 0 480 275t139 991q0 715-139 988-139 274-480 274-331 0-480-260-148-259-148-840M622 2944H147v378h1581v-422q141 259 378 386 238 127 588 127 709 0 1117-468 408-467 408-1282 0-816-408-1285T2694-91q-350 0-588 127-237 127-378 386V-953h513v-378H147v378h475z" transform="scale(.01563)"/><path id="DejaVuSerif-Bold-72" d="M3438 3359v-990h-354q-18 265-143 395t-363 130q-362 0-572-319-209-319-209-884V378h603V0H219v378h472v2566H184v378h1613v-591q162 347 429 514 268 168 655 168 97 0 236-15 139-14 321-39" transform="scale(.01563)"/><path id="DejaVuSerif-Bold-65" d="M2566 1875q0 656-122 920t-416 264q-284 0-408-259-123-259-123-869v-56zm1215-372H1497v-25q0-644 193-930 194-285 626-285 359 0 581 190 222 191 284 553h519q-134-565-534-831T2047-91q-863 0-1324 455-460 455-460 1299 0 825 471 1287 472 463 1313 463 825 0 1265-486 441-486 469-1424" transform="scale(.01563)"/><path id="DejaVuSerif-Bold-73" d="M300 97v928h353q44-372 278-567 235-195 638-195 337 0 517 117t180 336q0 200-114 309t-443 191l-456 115q-515 128-747 367-231 240-231 646 0 540 375 804 375 265 1156 265 294 0 627-49 333-48 736-151v-838h-353q-28 341-243 512-214 172-614 172-337 0-511-108-173-107-173-313 0-169 100-266t359-163l454-115q653-166 903-410 250-243 250-678 0-562-402-830Q2538-91 1691-91q-310 0-657 47Q688 3 300 97" transform="scale(.01563)"/><path id="DejaVuSerif-Bold-64" d="M2747 1497v328q0 581-150 840-150 260-478 260-344 0-483-274-139-273-139-988 0-716 140-991 141-275 482-275 328 0 478 259 150 260 150 841M3853 378h472V0H2747v422q-141-259-380-386T1778-91q-706 0-1111 469-404 469-404 1285 0 818 404 1284 405 466 1111 466 350 0 589-127t380-386v1588h-475v375h1581z" transform="scale(.01563)"/><path id="DejaVuSerif-Bold-53" d="M494 225v1106h397q90-525 427-784 338-259 935-259 485 0 738 184t253 541q0 281-172 437t-709 291l-700 172q-685 175-963 485-278 311-278 886 0 694 461 1080t1292 386q409 0 851-69 443-68 918-206V3444h-397q-91 481-397 704-306 224-872 224-462 0-698-161t-236-480q0-290 162-442 163-151 797-314l700-172q650-162 942-506 293-344 293-947 0-706-488-1074Q3263-91 2316-91q-457 0-907 79-450 78-915 237" transform="scale(.01563)"/><path id="DejaVuSerif-Bold-69" d="M588 4263q0 253 175 426 175 174 428 174 247 0 420-174 173-173 173-426 0-247-173-421-173-173-420-173-253 0-428 172t-175 422M1797 378h475V0H219v378h472v2566H219v378h1578z" transform="scale(.01563)"/><path id="DejaVuSerif-Bold-7a" d="M225 0v378l1906 2578H697v-568H325v934h3094v-372L1509 372h1538v600h372V0z" transform="scale(.01563)"/><path id="DejaVuSerif-Bold-49" d="M300 0v378h597v3910H300v378h2400v-378h-600V378h600V0z" transform="scale(.01563)"/><path id="DejaVuSerif-Bold-6e" d="M219 0v378h472v2566H219v378h1578v-469q200 297 456 428 256 132 647 132 559 0 845-330t286-970V378h475V0H2522v378h403v1766q0 422-108 586t-373 164q-335 0-491-246-156-245-156-779V378h406V0z" transform="scale(.01563)"/><path id="DejaVuSerif-Bold-78" d="m2247 2119 587 825h-409v378h1294v-378h-441l-847-1185 988-1381h440V0H1747v378h428l-625 875-628-875h447V0H0v378h475l881 1241-953 1325H31v378h2028v-378h-403z" transform="scale(.01563)"/><path id="DejaVuSerif-Bold-28" d="M2694-997Q1641-606 1122 122T603 1931q0 1082 512 1800 513 719 1579 1132v-375q-494-300-711-890-217-589-217-1667 0-1075 217-1664t711-889z" transform="scale(.01563)"/><path id="Cmr10-6c" d="M197 0v225q219 0 359 34 141 35 141 169v3360q0 171-52 248-51 77-148 94t-300 17v225l950 69V428q0-134 140-169 141-34 357-34V0z" transform="scale(.01563)"/><path id="Cmr10-7a" d="M250 0q-72 0-72 72v50q0 25 19 44l1787 2425h-575q-271 0-448-35-177-34-291-130-114-95-166-262-51-167-51-461H269l72 1056h2143q29 0 49-20t20-51v-38q0-19-12-44L750 184h613q278 0 464 34 186 35 317 166 122 122 167 328 45 207 70 510h185L2456 0z" transform="scale(.01563)"/><path id="Cmr10-34" d="M178 1056v225l1978 2950q22 32 66 32h94q72 0 72-72V1281h628v-225h-628V428q0-131 187-167 188-36 434-36V0H1247v225q247 0 434 36 188 36 188 167v628zm213 225h1515v2266z" transform="scale(.01563)"/><path id="Cmr10-3d" d="M481 850q-53 0-88 40-34 41-34 88 0 53 34 90 35 38 88 38h4019q47 0 81-38 35-37 35-90 0-47-35-88-34-40-81-40zm0 1244q-53 0-88 37-34 38-34 91 0 47 34 87 35 41 88 41h4019q47 0 81-41 35-40 35-87 0-53-35-91-34-37-81-37z" transform="scale(.01563)"/><path id="Cmr10-31" d="M594 0v225q800 0 800 203v3360q-331-160-838-160v225q785 0 1185 410h90q22 0 42-18 21-17 21-39V428q0-203 800-203V0z" transform="scale(.01563)"/><path id="Cmr10-30" d="M1600-141q-784 0-1067 645-283 646-283 1537 0 556 101 1046 102 491 403 833 302 343 846 343 422 0 690-207 269-206 410-533 141-326 192-700 52-373 52-782 0-550-102-1030-101-480-398-816t-844-336m0 166q356 0 531 365 175 366 216 810t41 944q0 481-41 887-41 407-215 736-173 330-532 330-362 0-537-332-175-331-216-736-41-404-41-885 0-356 17-672 18-316 93-652t242-566q167-229 442-229" transform="scale(.01563)"/><path id="DejaVuSerif-Bold-29" d="M325-997v375q494 300 711 889t217 1664q0 1078-217 1667-217 590-711 890v375q1066-413 1580-1132 514-718 514-1800 0-1081-521-1809Q1378-606 325-997" transform="scale(.01563)"/><path id="DejaVuSerif-Bold-5b" d="M800 4863h1772v-375h-666V-469h666v-375H800z" transform="scale(.01563)"/><path id="DejaVuSerif-Bold-4c" d="M300 0v378h597v3910H300v378h2400v-378h-600V428h1838v738h421V0z" transform="scale(.01563)"/><path id="DejaVuSerif-Bold-77" d="m3450 3322 756-2216 625 1838h-434v378h1241v-378h-391L4244 0h-763l-703 2081L2069 0h-756L306 2944H-56v378h1881v-378h-391l613-1797 744 2175z" transform="scale(.01563)"/><path id="DejaVuSerif-Bold-42" d="M300 0v378h597v3910H300v378h2766q853 0 1281-288 428-287 428-865 0-416-296-660-295-244-876-306 703-66 1078-375t375-822q0-694-524-1022Q4009 0 2894 0zm1800 2719h409q538 0 797 195 260 195 260 599 0 406-252 590-251 185-805 185h-409zm0-2341h447q597 0 884 237 288 238 288 735 0 500-291 747-290 247-881 247h-447z" transform="scale(.01563)"/><path id="DejaVuSerif-Bold-74" d="M634 2944H153v378h481v1031h1107V3322h922v-378h-922V909q0-434 68-540 69-106 250-106 200 0 297 134t103 416h466q-28-500-274-702-245-202-845-202-684 0-928 214-244 215-244 786z" transform="scale(.01563)"/><path id="Cmsy10-c3" d="M1722-13q-47 263-161 507t-286 447-391 356q-218 153-475 241-50 9-50 62 0 47 50 72 260 91 477 239t389 351q172 204 286 447 114 244 161 504 16 59 62 59h129q65 0 65-84-72-425-314-810-242-384-608-650h4857q53 0 87-41 34-40 34-87t-34-88q-34-40-87-40H1056q360-256 605-645t317-814q0-85-65-85h-129q-46 0-62 59" transform="scale(.01563)"/><path id="DejaVuSerif-Bold-5d" d="M2228 4863V-844H453v375h666v4957H453v375z" transform="scale(.01563)"/></defs><use xlink:href="#DejaVuSerif-Bold-43" transform="translate(0 .016)"/><use xlink:href="#DejaVuSerif-Bold-6f" transform="translate(79.59 .016)"/><use xlink:href="#DejaVuSerif-Bold-6d" transform="translate(146.29 .016)"/><use xlink:href="#DejaVuSerif-Bold-70" transform="translate(252.1 .016)"/><use xlink:href="#DejaVuSerif-Bold-72" transform="translate(322.021 .016)"/><use xlink:href="#DejaVuSerif-Bold-65" transform="translate(374.707 .016)"/><use xlink:href="#DejaVuSerif-Bold-73" transform="translate(438.33 .016)"/><use xlink:href="#DejaVuSerif-Bold-73" transform="translate(494.629 .016)"/><use xlink:href="#DejaVuSerif-Bold-65" transform="translate(550.928 .016)"/><use xlink:href="#DejaVuSerif-Bold-64" transform="translate(614.55 .016)"/><use xlink:href="#DejaVuSerif-Bold-53" transform="translate(719.287 .016)"/><use xlink:href="#DejaVuSerif-Bold-69" transform="translate(791.504 .016)"/><use xlink:href="#DejaVuSerif-Bold-7a" transform="translate(829.492 .016)"/><use xlink:href="#DejaVuSerif-Bold-65" transform="translate(886.28 .016)"/><use xlink:href="#DejaVuSerif-Bold-49" transform="translate(984.717 .016)"/><use xlink:href="#DejaVuSerif-Bold-6e" transform="translate(1031.494 .016)"/><use xlink:href="#DejaVuSerif-Bold-64" transform="translate(1104.2 .016)"/><use xlink:href="#DejaVuSerif-Bold-65" transform="translate(1174.121 .016)"/><use xlink:href="#DejaVuSerif-Bold-78" transform="translate(1237.744 .016)"/><use xlink:href="#DejaVuSerif-Bold-28" transform="translate(1366.992 .016)"/><use xlink:href="#Cmr10-6c" transform="translate(1414.307 .016)"/><use xlink:href="#Cmr10-7a" transform="translate(1441.992 .016)"/><use xlink:href="#Cmr10-34" transform="translate(1486.377 .016)"/><use xlink:href="#Cmr10-3d" transform="translate(1553.936 .016)"/><use xlink:href="#Cmr10-31" transform="translate(1649.18 .016)"/><use xlink:href="#Cmr10-30" transform="translate(1699.18 .016)"/><use xlink:href="#Cmr10-30" transform="translate(1749.18 .016)"/><use xlink:href="#DejaVuSerif-Bold-29" transform="translate(1799.18 .016)"/><use xlink:href="#DejaVuSerif-Bold-5b" transform="translate(1916.123 .016)"/><use xlink:href="#DejaVuSerif-Bold-4c" transform="translate(1963.438 .016)"/><use xlink:href="#DejaVuSerif-Bold-6f" transform="translate(2033.75 .016)"/><use xlink:href="#DejaVuSerif-Bold-77" transform="translate(2100.45 .016)"/><use xlink:href="#DejaVuSerif-Bold-65" transform="translate(2186.533 .016)"/><use xlink:href="#DejaVuSerif-Bold-72" transform="translate(2250.156 .016)"/><use xlink:href="#DejaVuSerif-Bold-69" transform="translate(2337.656 .016)"/><use xlink:href="#DejaVuSerif-Bold-73" transform="translate(2375.645 .016)"/><use xlink:href="#DejaVuSerif-Bold-42" transform="translate(2466.758 .016)"/><use xlink:href="#DejaVuSerif-Bold-65" transform="translate(2551.28 .016)"/><use xlink:href="#DejaVuSerif-Bold-74" transform="translate(2614.902 .016)"/><use xlink:href="#DejaVuSerif-Bold-74" transform="translate(2661.094 .016)"/><use xlink:href="#DejaVuSerif-Bold-65" transform="translate(2707.285 .016)"/><use xlink:href="#DejaVuSerif-Bold-72" transform="translate(2770.908 .016)"/><use xlink:href="#Cmsy10-c3" transform="translate(2875.967 .016)"/><use xlink:href="#DejaVuSerif-Bold-5d" transform="translate(2993.525 .016)"/></g></g><g id="matplotlib.axis_2"><g id="ytick_1"><path id="line2d_75" d="M41.988 362.892h672.84" clip-path="url(#p7f5670df3d)" style="fill:none;stroke-dasharray:2.59,1.12;stroke-dashoffset:0;stroke:#8a8a8a;stroke-opacity:.6;stroke-width:.7"/><g id="line2d_76"><defs><path id="m86bad4b68b" d="M0 0h5" style="stroke:#222;stroke-width:.8"/></defs><use xlink:href="#m86bad4b68b" x="41.988" y="362.892" style="fill:#222;stroke:#222;stroke-width:.8"/></g><g id="text_9" style="fill:#222" transform="matrix(.1 0 0 -.1 22.585 366.691)"><defs><path id="DejaVuSerif-2e" d="M603 325q0 175 119 297t297 122q172 0 293-122 122-122 122-297 0-172-122-294-121-122-293-122-178 0-297 120-119 121-119 296" transform="scale(.01563)"/><path id="DejaVuSerif-35" d="M3219 4666v-513H1081V2816q163 112 380 168 217 57 486 57 756 0 1193-419 438-419 438-1144 0-740-442-1155Q2694-91 1894-91q-322 0-660 79-337 78-690 237v906h353q28-443 282-678 255-234 715-234 494 0 759 325 266 325 266 934 0 606-264 929-264 324-761 324-281 0-496-100-214-100-379-309H750v2344z" transform="scale(.01563)"/></defs><use xlink:href="#DejaVuSerif-30"/><use xlink:href="#DejaVuSerif-2e" transform="translate(63.623)"/><use xlink:href="#DejaVuSerif-35" transform="translate(95.41)"/></g></g><g id="ytick_2"><path id="line2d_77" d="M41.988 299.04h672.84" clip-path="url(#p7f5670df3d)" style="fill:none;stroke-dasharray:2.59,1.12;stroke-dashoffset:0;stroke:#8a8a8a;stroke-opacity:.6;stroke-width:.7"/><use xlink:href="#m86bad4b68b" id="line2d_78" x="41.988" y="299.041" style="fill:#222;stroke:#222;stroke-width:.8"/><g id="text_10" style="fill:#222" transform="matrix(.1 0 0 -.1 22.585 302.84)"><use xlink:href="#DejaVuSerif-31"/><use xlink:href="#DejaVuSerif-2e" transform="translate(63.623)"/><use xlink:href="#DejaVuSerif-30" transform="translate(95.41)"/></g></g><g id="ytick_3"><path id="line2d_79" d="M41.988 235.19h672.84" clip-path="url(#p7f5670df3d)" style="fill:none;stroke-dasharray:2.59,1.12;stroke-dashoffset:0;stroke:#8a8a8a;stroke-opacity:.6;stroke-width:.7"/><use xlink:href="#m86bad4b68b" id="line2d_80" x="41.988" y="235.189" style="fill:#222;stroke:#222;stroke-width:.8"/><g id="text_11" style="fill:#222" transform="matrix(.1 0 0 -.1 22.585 238.988)"><use xlink:href="#DejaVuSerif-31"/><use xlink:href="#DejaVuSerif-2e" transform="translate(63.623)"/><use xlink:href="#DejaVuSerif-35" transform="translate(95.41)"/></g></g><g id="ytick_4"><path id="line2d_81" d="M41.988 171.338h672.84" clip-path="url(#p7f5670df3d)" style="fill:none;stroke-dasharray:2.59,1.12;stroke-dashoffset:0;stroke:#8a8a8a;stroke-opacity:.6;stroke-width:.7"/><use xlink:href="#m86bad4b68b" id="line2d_82" x="41.988" y="171.338" style="fill:#222;stroke:#222;stroke-width:.8"/><g id="text_12" style="fill:#222" transform="matrix(.1 0 0 -.1 22.585 175.137)"><use xlink:href="#DejaVuSerif-32"/><use xlink:href="#DejaVuSerif-2e" transform="translate(63.623)"/><use xlink:href="#DejaVuSerif-30" transform="translate(95.41)"/></g></g><g id="ytick_5"><path id="line2d_83" d="M41.988 107.486h672.84" clip-path="url(#p7f5670df3d)" style="fill:none;stroke-dasharray:2.59,1.12;stroke-dashoffset:0;stroke:#8a8a8a;stroke-opacity:.6;stroke-width:.7"/><use xlink:href="#m86bad4b68b" id="line2d_84" x="41.988" y="107.486" style="fill:#222;stroke:#222;stroke-width:.8"/><g id="text_13" style="fill:#222" transform="matrix(.1 0 0 -.1 22.585 111.286)"><use xlink:href="#DejaVuSerif-32"/><use xlink:href="#DejaVuSerif-2e" transform="translate(63.623)"/><use xlink:href="#DejaVuSerif-35" transform="translate(95.41)"/></g></g><g id="ytick_6"><path id="line2d_85" d="M41.988 43.635h672.84" clip-path="url(#p7f5670df3d)" style="fill:none;stroke-dasharray:2.59,1.12;stroke-dashoffset:0;stroke:#8a8a8a;stroke-opacity:.6;stroke-width:.7"/><use xlink:href="#m86bad4b68b" id="line2d_86" x="41.988" y="43.635" style="fill:#222;stroke:#222;stroke-width:.8"/><g id="text_14" style="fill:#222" transform="matrix(.1 0 0 -.1 22.585 47.434)"><use xlink:href="#DejaVuSerif-33"/><use xlink:href="#DejaVuSerif-2e" transform="translate(63.623)"/><use xlink:href="#DejaVuSerif-30" transform="translate(95.41)"/></g></g><g id="ytick_7"><path id="line2d_87" d="M41.988 413.973h672.84" clip-path="url(#p7f5670df3d)" style="fill:none;stroke-dasharray:.5,.825;stroke-dashoffset:0;stroke:#b0b0b0;stroke-opacity:.4;stroke-width:.5"/><g id="line2d_88"><defs><path id="m06f829c523" d="M0 0h2.5" style="stroke:#222;stroke-width:.6"/></defs><use xlink:href="#m06f829c523" x="41.988" y="413.973" style="fill:#222;stroke:#222;stroke-width:.6"/></g></g><g id="ytick_8"><path id="line2d_89" d="M41.988 401.203h672.84" clip-path="url(#p7f5670df3d)" style="fill:none;stroke-dasharray:.5,.825;stroke-dashoffset:0;stroke:#b0b0b0;stroke-opacity:.4;stroke-width:.5"/><use xlink:href="#m06f829c523" id="line2d_90" x="41.988" y="401.203" style="fill:#222;stroke:#222;stroke-width:.6"/></g><g id="ytick_9"><path id="line2d_91" d="M41.988 388.432h672.84" clip-path="url(#p7f5670df3d)" style="fill:none;stroke-dasharray:.5,.825;stroke-dashoffset:0;stroke:#b0b0b0;stroke-opacity:.4;stroke-width:.5"/><use xlink:href="#m06f829c523" id="line2d_92" x="41.988" y="388.432" style="fill:#222;stroke:#222;stroke-width:.6"/></g><g id="ytick_10"><path id="line2d_93" d="M41.988 375.662h672.84" clip-path="url(#p7f5670df3d)" style="fill:none;stroke-dasharray:.5,.825;stroke-dashoffset:0;stroke:#b0b0b0;stroke-opacity:.4;stroke-width:.5"/><use xlink:href="#m06f829c523" id="line2d_94" x="41.988" y="375.662" style="fill:#222;stroke:#222;stroke-width:.6"/></g><g id="ytick_11"><path id="line2d_95" d="M41.988 350.122h672.84" clip-path="url(#p7f5670df3d)" style="fill:none;stroke-dasharray:.5,.825;stroke-dashoffset:0;stroke:#b0b0b0;stroke-opacity:.4;stroke-width:.5"/><use xlink:href="#m06f829c523" id="line2d_96" x="41.988" y="350.122" style="fill:#222;stroke:#222;stroke-width:.6"/></g><g id="ytick_12"><path id="line2d_97" d="M41.988 337.351h672.84" clip-path="url(#p7f5670df3d)" style="fill:none;stroke-dasharray:.5,.825;stroke-dashoffset:0;stroke:#b0b0b0;stroke-opacity:.4;stroke-width:.5"/><use xlink:href="#m06f829c523" id="line2d_98" x="41.988" y="337.351" style="fill:#222;stroke:#222;stroke-width:.6"/></g><g id="ytick_13"><path id="line2d_99" d="M41.988 324.581h672.84" clip-path="url(#p7f5670df3d)" style="fill:none;stroke-dasharray:.5,.825;stroke-dashoffset:0;stroke:#b0b0b0;stroke-opacity:.4;stroke-width:.5"/><use xlink:href="#m06f829c523" id="line2d_100" x="41.988" y="324.581" style="fill:#222;stroke:#222;stroke-width:.6"/></g><g id="ytick_14"><path id="line2d_101" d="M41.988 311.81h672.84" clip-path="url(#p7f5670df3d)" style="fill:none;stroke-dasharray:.5,.825;stroke-dashoffset:0;stroke:#b0b0b0;stroke-opacity:.4;stroke-width:.5"/><use xlink:href="#m06f829c523" id="line2d_102" x="41.988" y="311.811" style="fill:#222;stroke:#222;stroke-width:.6"/></g><g id="ytick_15"><path id="line2d_103" d="M41.988 286.27h672.84" clip-path="url(#p7f5670df3d)" style="fill:none;stroke-dasharray:.5,.825;stroke-dashoffset:0;stroke:#b0b0b0;stroke-opacity:.4;stroke-width:.5"/><use xlink:href="#m06f829c523" id="line2d_104" x="41.988" y="286.27" style="fill:#222;stroke:#222;stroke-width:.6"/></g><g id="ytick_16"><path id="line2d_105" d="M41.988 273.5h672.84" clip-path="url(#p7f5670df3d)" style="fill:none;stroke-dasharray:.5,.825;stroke-dashoffset:0;stroke:#b0b0b0;stroke-opacity:.4;stroke-width:.5"/><use xlink:href="#m06f829c523" id="line2d_106" x="41.988" y="273.5" style="fill:#222;stroke:#222;stroke-width:.6"/></g><g id="ytick_17"><path id="line2d_107" d="M41.988 260.73h672.84" clip-path="url(#p7f5670df3d)" style="fill:none;stroke-dasharray:.5,.825;stroke-dashoffset:0;stroke:#b0b0b0;stroke-opacity:.4;stroke-width:.5"/><use xlink:href="#m06f829c523" id="line2d_108" x="41.988" y="260.73" style="fill:#222;stroke:#222;stroke-width:.6"/></g><g id="ytick_18"><path id="line2d_109" d="M41.988 247.96h672.84" clip-path="url(#p7f5670df3d)" style="fill:none;stroke-dasharray:.5,.825;stroke-dashoffset:0;stroke:#b0b0b0;stroke-opacity:.4;stroke-width:.5"/><use xlink:href="#m06f829c523" id="line2d_110" x="41.988" y="247.959" style="fill:#222;stroke:#222;stroke-width:.6"/></g><g id="ytick_19"><path id="line2d_111" d="M41.988 222.419h672.84" clip-path="url(#p7f5670df3d)" style="fill:none;stroke-dasharray:.5,.825;stroke-dashoffset:0;stroke:#b0b0b0;stroke-opacity:.4;stroke-width:.5"/><use xlink:href="#m06f829c523" id="line2d_112" x="41.988" y="222.419" style="fill:#222;stroke:#222;stroke-width:.6"/></g><g id="ytick_20"><path id="line2d_113" d="M41.988 209.649h672.84" clip-path="url(#p7f5670df3d)" style="fill:none;stroke-dasharray:.5,.825;stroke-dashoffset:0;stroke:#b0b0b0;stroke-opacity:.4;stroke-width:.5"/><use xlink:href="#m06f829c523" id="line2d_114" x="41.988" y="209.649" style="fill:#222;stroke:#222;stroke-width:.6"/></g><g id="ytick_21"><path id="line2d_115" d="M41.988 196.878h672.84" clip-path="url(#p7f5670df3d)" style="fill:none;stroke-dasharray:.5,.825;stroke-dashoffset:0;stroke:#b0b0b0;stroke-opacity:.4;stroke-width:.5"/><use xlink:href="#m06f829c523" id="line2d_116" x="41.988" y="196.878" style="fill:#222;stroke:#222;stroke-width:.6"/></g><g id="ytick_22"><path id="line2d_117" d="M41.988 184.108h672.84" clip-path="url(#p7f5670df3d)" style="fill:none;stroke-dasharray:.5,.825;stroke-dashoffset:0;stroke:#b0b0b0;stroke-opacity:.4;stroke-width:.5"/><use xlink:href="#m06f829c523" id="line2d_118" x="41.988" y="184.108" style="fill:#222;stroke:#222;stroke-width:.6"/></g><g id="ytick_23"><path id="line2d_119" d="M41.988 158.568h672.84" clip-path="url(#p7f5670df3d)" style="fill:none;stroke-dasharray:.5,.825;stroke-dashoffset:0;stroke:#b0b0b0;stroke-opacity:.4;stroke-width:.5"/><use xlink:href="#m06f829c523" id="line2d_120" x="41.988" y="158.568" style="fill:#222;stroke:#222;stroke-width:.6"/></g><g id="ytick_24"><path id="line2d_121" d="M41.988 145.797h672.84" clip-path="url(#p7f5670df3d)" style="fill:none;stroke-dasharray:.5,.825;stroke-dashoffset:0;stroke:#b0b0b0;stroke-opacity:.4;stroke-width:.5"/><use xlink:href="#m06f829c523" id="line2d_122" x="41.988" y="145.797" style="fill:#222;stroke:#222;stroke-width:.6"/></g><g id="ytick_25"><path id="line2d_123" d="M41.988 133.027h672.84" clip-path="url(#p7f5670df3d)" style="fill:none;stroke-dasharray:.5,.825;stroke-dashoffset:0;stroke:#b0b0b0;stroke-opacity:.4;stroke-width:.5"/><use xlink:href="#m06f829c523" id="line2d_124" x="41.988" y="133.027" style="fill:#222;stroke:#222;stroke-width:.6"/></g><g id="ytick_26"><path id="line2d_125" d="M41.988 120.257h672.84" clip-path="url(#p7f5670df3d)" style="fill:none;stroke-dasharray:.5,.825;stroke-dashoffset:0;stroke:#b0b0b0;stroke-opacity:.4;stroke-width:.5"/><use xlink:href="#m06f829c523" id="line2d_126" x="41.988" y="120.257" style="fill:#222;stroke:#222;stroke-width:.6"/></g><g id="ytick_27"><path id="line2d_127" d="M41.988 94.716h672.84" clip-path="url(#p7f5670df3d)" style="fill:none;stroke-dasharray:.5,.825;stroke-dashoffset:0;stroke:#b0b0b0;stroke-opacity:.4;stroke-width:.5"/><use xlink:href="#m06f829c523" id="line2d_128" x="41.988" y="94.716" style="fill:#222;stroke:#222;stroke-width:.6"/></g><g id="ytick_28"><path id="line2d_129" d="M41.988 81.946h672.84" clip-path="url(#p7f5670df3d)" style="fill:none;stroke-dasharray:.5,.825;stroke-dashoffset:0;stroke:#b0b0b0;stroke-opacity:.4;stroke-width:.5"/><use xlink:href="#m06f829c523" id="line2d_130" x="41.988" y="81.946" style="fill:#222;stroke:#222;stroke-width:.6"/></g><g id="ytick_29"><path id="line2d_131" d="M41.988 69.176h672.84" clip-path="url(#p7f5670df3d)" style="fill:none;stroke-dasharray:.5,.825;stroke-dashoffset:0;stroke:#b0b0b0;stroke-opacity:.4;stroke-width:.5"/><use xlink:href="#m06f829c523" id="line2d_132" x="41.988" y="69.176" style="fill:#222;stroke:#222;stroke-width:.6"/></g><g id="ytick_30"><path id="line2d_133" d="M41.988 56.405h672.84" clip-path="url(#p7f5670df3d)" style="fill:none;stroke-dasharray:.5,.825;stroke-dashoffset:0;stroke:#b0b0b0;stroke-opacity:.4;stroke-width:.5"/><use xlink:href="#m06f829c523" id="line2d_134" x="41.988" y="56.405" style="fill:#222;stroke:#222;stroke-width:.6"/></g><g id="text_15" transform="matrix(0 -.115 -.115 0 15.94 421.868)"><defs><path id="DejaVuSerif-Bold-44" d="M2100 378h434q732 0 1071 469t339 1491q0 1015-338 1482-337 468-1072 468h-434zM300 0v378h597v3910H300v378h2394q1256 0 1921-600 666-600 666-1728 0-1135-667-1737Q3947 0 2694 0z" transform="scale(.01563)"/><path id="DejaVuSerif-Bold-63" d="M3609 1038q-118-569-486-849-367-280-998-280-887 0-1375 459-487 460-487 1295 0 825 481 1287 481 463 1337 463 347 0 700-66t719-197v-922h-350q-50 422-247 626-197 205-553 205-462 0-658-313-195-312-195-1083 0-754 190-1077 191-323 622-323 335 0 536 200 202 200 246 575z" transform="scale(.01563)"/><path id="DejaVuSerif-Bold-52" d="M3397 2278q278-40 468-184 191-144 332-416l681-1300h478V0H3822l-744 1409q-215 438-367 558-152 121-420 121h-191V378h600V0H300v378h597v3910H300v378h2663q812 0 1254-327 442-326 442-926 0-488-314-771t-948-364m-1297 185h409q438 0 674 237 236 238 236 678 0 441-236 675-236 235-674 235h-409z" transform="scale(.01563)"/><path id="DejaVuSerif-Bold-61" d="M3525 2041V378h475V0H2419v422q-219-263-488-388-268-125-612-125-510 0-783 273-273 274-273 784 0 559 392 837t1183 278h581v197q0 403-191 595-190 193-590 193-332 0-512-136-179-136-254-446H519v716q297 106 615 159 319 54 672 54 891 0 1305-332 414-331 414-1040m-1106-997v665h-416q-309 0-475-169-165-168-165-484 0-315 120-472 120-156 367-156 256 0 412 169 157 169 157 447" transform="scale(.01563)"/><path id="Cmmi10-3a" d="M538 353q0 144 106 247t247 103q87 0 171-47 85-47 132-131t47-172q0-140-104-247Q1034 0 891 0 750 0 644 106 538 213 538 353" transform="scale(.01563)"/><path id="DejaVuSerif-Bold-48" d="M300 0v378h597v3910H300v378h2400v-378h-600V2719h1856v1569h-597v378h2400v-378h-600V378h600V0H3359v378h597v1913H2100V378h600V0z" transform="scale(.01563)"/><path id="DejaVuSerif-Bold-67" d="M3853 2944V44q0-700-499-1083-498-383-1407-383-331 0-672 52-341 51-700 154v794h353q47-328 264-487 217-160 621-160 512 0 723 246 211 245 211 867v378q-141-259-380-386T1778-91q-706 0-1111 469-404 469-404 1285 0 818 404 1284 405 466 1111 466 350 0 589-127t380-386v422h1578v-378zM2747 1825q0 581-150 840-150 260-478 260-344 0-483-274-139-273-139-988 0-716 140-991 141-275 482-275 328 0 478 259 150 260 150 841z" transform="scale(.01563)"/><path id="DejaVuSerif-Bold-68" d="M219 0v378h472v4110H197v375h1600V2853q200 297 456 428 256 132 647 132 559 0 845-330t286-970V378h475V0H2522v378h403v1766q0 422-108 586t-373 164q-335 0-491-246-156-245-156-779V378h406V0z" transform="scale(.01563)"/><path id="Cmsy10-22" d="M1472-1125v4684q-144-237-339-419-195-181-435-308-239-126-501-182-13-6-19-6-69 0-69 56v141q0 43 44 59 360 81 653 292 294 211 481 516 188 305 241 676 13 29 31 43 19 14 41 14t44-18q22-17 28-39 75-543 453-953 378-409 922-531 19-6 31-27 13-20 13-32v-141q0-19-22-38-22-18-47-18-6 0-19 6-262 56-501 182-239 127-435 308-195 182-339 419v-4684q0-50-41-83-40-33-87-33t-88 33q-40 33-40 83" transform="scale(.01563)"/></defs><use xlink:href="#DejaVuSerif-Bold-44" transform="translate(0 .016)"/><use xlink:href="#DejaVuSerif-Bold-65" transform="translate(86.719 .016)"/><use xlink:href="#DejaVuSerif-Bold-63" transform="translate(150.342 .016)"/><use xlink:href="#DejaVuSerif-Bold-6f" transform="translate(211.23 .016)"/><use xlink:href="#DejaVuSerif-Bold-6d" transform="translate(277.93 .016)"/><use xlink:href="#DejaVuSerif-Bold-70" transform="translate(383.74 .016)"/><use xlink:href="#DejaVuSerif-Bold-72" transform="translate(453.662 .016)"/><use xlink:href="#DejaVuSerif-Bold-65" transform="translate(506.348 .016)"/><use xlink:href="#DejaVuSerif-Bold-73" transform="translate(569.97 .016)"/><use xlink:href="#DejaVuSerif-Bold-73" transform="translate(626.27 .016)"/><use xlink:href="#DejaVuSerif-Bold-69" transform="translate(682.568 .016)"/><use xlink:href="#DejaVuSerif-Bold-6f" transform="translate(720.557 .016)"/><use xlink:href="#DejaVuSerif-Bold-6e" transform="translate(787.256 .016)"/><use xlink:href="#DejaVuSerif-Bold-53" transform="translate(894.775 .016)"/><use xlink:href="#DejaVuSerif-Bold-70" transform="translate(966.992 .016)"/><use xlink:href="#DejaVuSerif-Bold-65" transform="translate(1036.914 .016)"/><use xlink:href="#DejaVuSerif-Bold-65" transform="translate(1100.537 .016)"/><use xlink:href="#DejaVuSerif-Bold-64" transform="translate(1164.16 .016)"/><use xlink:href="#DejaVuSerif-Bold-52" transform="translate(1268.896 .016)"/><use xlink:href="#DejaVuSerif-Bold-61" transform="translate(1352.002 .016)"/><use xlink:href="#DejaVuSerif-Bold-74" transform="translate(1416.797 .016)"/><use xlink:href="#DejaVuSerif-Bold-69" transform="translate(1462.988 .016)"/><use xlink:href="#DejaVuSerif-Bold-6f" transform="translate(1500.977 .016)"/><use xlink:href="#DejaVuSerif-Bold-28" transform="translate(1637.305 .016)"/><use xlink:href="#Cmr10-6c" transform="translate(1684.62 .016)"/><use xlink:href="#Cmr10-7a" transform="translate(1712.305 .016)"/><use xlink:href="#Cmr10-34" transform="translate(1756.69 .016)"/><use xlink:href="#Cmr10-3d" transform="translate(1824.248 .016)"/><use xlink:href="#Cmr10-31" transform="translate(1919.492 .016)"/><use xlink:href="#Cmmi10-3a" transform="translate(1969.492 .016)"/><use xlink:href="#Cmr10-30" transform="translate(1997.178 .016)"/><use xlink:href="#DejaVuSerif-Bold-29" transform="translate(2047.178 .016)"/><use xlink:href="#DejaVuSerif-Bold-5b" transform="translate(2164.121 .016)"/><use xlink:href="#DejaVuSerif-Bold-48" transform="translate(2211.436 .016)"/><use xlink:href="#DejaVuSerif-Bold-69" transform="translate(2305.918 .016)"/><use xlink:href="#DejaVuSerif-Bold-67" transform="translate(2343.906 .016)"/><use xlink:href="#DejaVuSerif-Bold-68" transform="translate(2413.828 .016)"/><use xlink:href="#DejaVuSerif-Bold-65" transform="translate(2486.533 .016)"/><use xlink:href="#DejaVuSerif-Bold-72" transform="translate(2550.156 .016)"/><use xlink:href="#DejaVuSerif-Bold-69" transform="translate(2637.656 .016)"/><use xlink:href="#DejaVuSerif-Bold-73" transform="translate(2675.645 .016)"/><use xlink:href="#DejaVuSerif-Bold-42" transform="translate(2766.758 .016)"/><use xlink:href="#DejaVuSerif-Bold-65" transform="translate(2851.28 .016)"/><use xlink:href="#DejaVuSerif-Bold-74" transform="translate(2914.902 .016)"/><use xlink:href="#DejaVuSerif-Bold-74" transform="translate(2961.094 .016)"/><use xlink:href="#DejaVuSerif-Bold-65" transform="translate(3007.285 .016)"/><use xlink:href="#DejaVuSerif-Bold-72" transform="translate(3070.908 .016)"/><use xlink:href="#Cmsy10-22" transform="translate(3175.967 .016)"/><use xlink:href="#DejaVuSerif-Bold-5d" transform="translate(3243.525 .016)"/></g></g><path id="line2d_135" d="M364.583 421.635v-378" clip-path="url(#p7f5670df3d)" style="fill:none;stroke-dasharray:3.33,1.44;stroke-dashoffset:0;stroke:#5b6470;stroke-opacity:.7;stroke-width:.9"/><path id="line2d_136" d="M41.988 299.04h672.84" clip-path="url(#p7f5670df3d)" style="fill:none;stroke-dasharray:3.33,1.44;stroke-dashoffset:0;stroke:#5b6470;stroke-opacity:.7;stroke-width:.9"/><path id="patch_3" d="M41.988 421.635v-378" style="fill:none;stroke:#222;stroke-width:.9;stroke-linejoin:miter;stroke-linecap:square"/><path id="patch_4" d="M714.828 421.635v-378" style="fill:none;stroke:#222;stroke-width:.9;stroke-linejoin:miter;stroke-linecap:square"/><path id="patch_5" d="M41.988 421.635h672.84" style="fill:none;stroke:#222;stroke-width:.9;stroke-linejoin:miter;stroke-linecap:square"/><path id="patch_6" d="M41.988 43.635h672.84" style="fill:none;stroke:#222;stroke-width:.9;stroke-linejoin:miter;stroke-linecap:square"/><g id="text_16" style="fill:#3a4250" transform="matrix(.09 0 0 -.09 654.462 271.613)"><defs><path id="DejaVuSerif-6c" d="M1313 331h543V0H184v331h554v4200H184v332h1129z" transform="scale(.01563)"/><path id="DejaVuSerif-7a" d="M256 0v269l2082 2719H691v-575H359v909h2719v-269L997 331h1806v603h335V0z" transform="scale(.01563)"/><path id="DejaVuSerif-34" d="M2234 1581v2482L641 1581zM3609 0H1484v331h750v916H197v341l2044 3162h618V1581h891v-334h-891V331h750z" transform="scale(.01563)"/><path id="DejaVuSerif-2d" d="M281 1959h1600v-487H281z" transform="scale(.01563)"/><path id="DejaVuSerif-66" d="M2753 4078h-303q-3 235-133 356-129 122-376 122-322 0-454-177-131-176-131-629v-428h928v-334h-928V331h738V0H231v331h550v2657H231v334h550v416q0 556 289 840 289 285 849 285 209 0 418-38 210-37 416-116z" transform="scale(.01563)"/><path id="DejaVuSerif-61" d="M2547 1044v703h-741q-428 0-638-185-209-184-209-565 0-347 212-550 213-203 576-203 359 0 579 222 221 222 221 578m575 1031V331h512V0H2547v359q-191-231-441-341-250-109-584-109-553 0-878 294T319 997q0 516 372 800t1050 284h806v228q0 379-230 586-229 208-645 208-344 0-547-156t-253-463H575v672q300 128 583 192 283 65 551 65 691 0 1052-343 361-342 361-995" transform="scale(.01563)"/><path id="DejaVuSerif-73" d="M359 184v775h332q12-371 232-556 221-184 652-184 388 0 591 145t203 424q0 218-149 352-148 135-626 288l-416 141q-428 137-620 343-192 207-192 526 0 456 334 715 334 260 925 260 263 0 553-69 291-69 600-200v-725h-331q-13 322-226 503-212 181-577 181-363 0-549-128t-186-384q0-210 141-337 141-126 563-257l456-141q472-147 679-367 208-220 208-567 0-472-361-743-361-270-995-270-322 0-628 69T359 184" transform="scale(.01563)"/><path id="DejaVuSerif-74" d="M691 2988H184v334h507v1031h578V3322h1081v-334H1269V878q0-422 81-541 81-118 300-118 225 0 328 132 103 133 110 430h434q-25-453-247-663-222-209-675-209-497 0-703 220-206 221-206 749z" transform="scale(.01563)"/></defs><use xlink:href="#DejaVuSerif-6c"/><use xlink:href="#DejaVuSerif-7a" transform="translate(31.982)"/><use xlink:href="#DejaVuSerif-34" transform="translate(84.668)"/><use xlink:href="#DejaVuSerif-2d" transform="translate(180.078)"/><use xlink:href="#DejaVuSerif-2d" transform="translate(213.867)"/><use xlink:href="#DejaVuSerif-66" transform="translate(247.656)"/><use xlink:href="#DejaVuSerif-61" transform="translate(284.668)"/><use xlink:href="#DejaVuSerif-73" transform="translate(344.287)"/><use xlink:href="#DejaVuSerif-74" transform="translate(395.605)"/><use xlink:href="#DejaVuSerif-2d" transform="translate(467.578)"/><use xlink:href="#DejaVuSerif-31" transform="translate(501.367)"/><use xlink:href="#DejaVuSerif-37" transform="translate(564.99)"/></g><g id="text_17" style="fill:#3a4250" transform="matrix(.09 0 0 -.09 162.476 300.849)"><defs><path id="DejaVuSerif-68" d="M263 0v331h518v4200H231v332h1125V2731q160 338 414 510 255 172 593 172 550 0 809-316t259-984V331h513V0H2356v331h497v1600q0 610-149 833-148 224-529 224-400 0-610-291-209-291-209-847V331h500V0z" transform="scale(.01563)"/><path id="DejaVuSerif-63" d="M3291 997q-122-531-469-810-347-278-897-278-725 0-1166 480-440 480-440 1274 0 796 440 1273 441 477 1166 477 316 0 628-74 313-73 628-223v-850h-334q-66 437-286 637t-630 200q-465 0-703-361-237-361-237-1079 0-719 236-1082 236-362 704-362 372 0 594 193 222 194 303 585z" transform="scale(.01563)"/></defs><use xlink:href="#DejaVuSerif-6c"/><use xlink:href="#DejaVuSerif-7a" transform="translate(31.982)"/><use xlink:href="#DejaVuSerif-34" transform="translate(84.668)"/><use xlink:href="#DejaVuSerif-68" transform="translate(148.291)"/><use xlink:href="#DejaVuSerif-63" transform="translate(212.695)"/><use xlink:href="#DejaVuSerif-2d" transform="translate(300.488)"/><use xlink:href="#DejaVuSerif-39" transform="translate(334.277)"/></g><g id="text_18" style="fill:#3a4250" transform="matrix(.09 0 0 -.09 224.242 318.23)"><defs><path id="DejaVuSerif-76" d="M1581 0 359 2988H-19v334h1528v-334H978l935-2285 934 2285h-497v334h1247v-334h-372L2003 0z" transform="scale(.01563)"/></defs><use xlink:href="#DejaVuSerif-6c"/><use xlink:href="#DejaVuSerif-7a" transform="translate(31.982)"/><use xlink:href="#DejaVuSerif-61" transform="translate(84.668)"/><use xlink:href="#DejaVuSerif-76" transform="translate(144.287)"/><use xlink:href="#DejaVuSerif-35" transform="translate(232.568)"/><use xlink:href="#DejaVuSerif-2e" transform="translate(296.191)"/><use xlink:href="#DejaVuSerif-37" transform="translate(327.979)"/><use xlink:href="#DejaVuSerif-2d" transform="translate(423.389)"/><use xlink:href="#DejaVuSerif-31" transform="translate(457.178)"/></g><g id="text_19" style="fill:#3a4250" transform="matrix(.09 0 0 -.09 377.467 334.597)"><defs><path id="DejaVuSerif-6e" d="M263 0v331h518v2657H231v334h1125v-591q160 338 414 510 255 172 593 172 550 0 809-316t259-984V331h513V0H2356v331h497v1600q0 610-150 836-150 227-528 227-400 0-610-293-209-292-209-851V331h500V0z" transform="scale(.01563)"/><path id="DejaVuSerif-70" d="M1313 1825v-328q0-600 229-914 230-314 667-314 441 0 667 353 227 353 227 1041 0 690-227 1040-226 350-667 350-437 0-667-316-229-315-229-912M738 2988H184v334h1129v-519q168 313 429 461 261 149 646 149 612 0 999-485 388-484 388-1265 0-782-388-1268-387-486-999-486-385 0-646 148-261 149-429 462V-997h543v-334H184v334h554z" transform="scale(.01563)"/><path id="DejaVuSerif-79" d="m1381-609 219 553L359 2988H-19v334h1528v-334H978l935-2285 934 2285h-497v334h1247v-334h-372L1703-750q-156-388-347-530-190-142-537-142-147 0-302 25-154 25-311 72v634h294q19-212 108-304 89-93 276-93 172 0 277 96 105 95 220 383" transform="scale(.01563)"/></defs><use xlink:href="#DejaVuSerif-73"/><use xlink:href="#DejaVuSerif-6e" transform="translate(51.318)"/><use xlink:href="#DejaVuSerif-61" transform="translate(115.723)"/><use xlink:href="#DejaVuSerif-70" transform="translate(175.342)"/><use xlink:href="#DejaVuSerif-70" transform="translate(239.355)"/><use xlink:href="#DejaVuSerif-79" transform="translate(303.37)"/><use xlink:href="#DejaVuSerif-31" transform="translate(391.65)"/><use xlink:href="#DejaVuSerif-2e" transform="translate(455.273)"/><use xlink:href="#DejaVuSerif-32" transform="translate(487.06)"/><use xlink:href="#DejaVuSerif-2e" transform="translate(550.684)"/><use xlink:href="#DejaVuSerif-32" transform="translate(582.47)"/></g><g id="text_20" style="fill:#3a4250" transform="matrix(.09 0 0 -.09 244.996 353.98)"><defs><path id="DejaVuSerif-64" d="M3359 331h550V0H2784v519q-168-313-429-462-261-148-646-148-612 0-1001 486T319 1663q0 781 387 1265 388 485 1003 485 385 0 646-149 261-148 429-461v1728h-543v332h1118zm-575 1166v328q0 597-230 912-229 316-666 316-444 0-671-350-226-350-226-1040 0-688 226-1041 227-353 671-353 437 0 666 314 230 314 230 914" transform="scale(.01563)"/></defs><use xlink:href="#DejaVuSerif-7a"/><use xlink:href="#DejaVuSerif-73" transform="translate(52.686)"/><use xlink:href="#DejaVuSerif-74" transform="translate(104.004)"/><use xlink:href="#DejaVuSerif-64" transform="translate(144.19)"/><use xlink:href="#DejaVuSerif-2d" transform="translate(239.99)"/><use xlink:href="#DejaVuSerif-2d" transform="translate(273.78)"/><use xlink:href="#DejaVuSerif-66" transform="translate(307.568)"/><use xlink:href="#DejaVuSerif-61" transform="translate(344.58)"/><use xlink:href="#DejaVuSerif-73" transform="translate(404.2)"/><use xlink:href="#DejaVuSerif-74" transform="translate(455.518)"/><use xlink:href="#DejaVuSerif-2d" transform="translate(527.49)"/><use xlink:href="#DejaVuSerif-31" transform="translate(561.28)"/></g><g id="text_21" style="fill:#3a4250" transform="matrix(.09 0 0 -.09 119.62 373.524)"><use xlink:href="#DejaVuSerif-7a"/><use xlink:href="#DejaVuSerif-73" transform="translate(52.686)"/><use xlink:href="#DejaVuSerif-74" transform="translate(104.004)"/><use xlink:href="#DejaVuSerif-64" transform="translate(144.19)"/><use xlink:href="#DejaVuSerif-31" transform="translate(239.99)"/><use xlink:href="#DejaVuSerif-2e" transform="translate(303.613)"/><use xlink:href="#DejaVuSerif-35" transform="translate(335.4)"/><use xlink:href="#DejaVuSerif-2e" transform="translate(399.023)"/><use xlink:href="#DejaVuSerif-37" transform="translate(430.81)"/><use xlink:href="#DejaVuSerif-2d" transform="translate(526.22)"/><use xlink:href="#DejaVuSerif-31" transform="translate(560.01)"/></g><g id="text_22" style="fill:#3a4250" transform="matrix(.09 0 0 -.09 156.762 410.797)"><defs><path id="DejaVuSerif-69" d="M622 4353q0 144 104 250 105 106 252 106 144 0 248-106 105-106 105-250 0-147-103-250t-250-103-252 103q-104 103-104 250m734-4022h544V0H231v331h550v2657H231v334h1125z" transform="scale(.01563)"/><path id="DejaVuSerif-62" d="M738 331v4200H184v332h1129V2803q168 313 429 461 261 149 646 149 612 0 999-485 388-484 388-1265 0-782-388-1268-387-486-999-486-385 0-646 148-261 149-429 462V0H184v331zm575 1166q0-600 229-914 230-314 667-314 441 0 667 353 227 353 227 1041 0 690-227 1040-226 350-667 350-437 0-667-316-229-315-229-912z" transform="scale(.01563)"/></defs><use xlink:href="#DejaVuSerif-7a"/><use xlink:href="#DejaVuSerif-6c" transform="translate(52.686)"/><use xlink:href="#DejaVuSerif-69" transform="translate(84.668)"/><use xlink:href="#DejaVuSerif-62" transform="translate(116.65)"/><use xlink:href="#DejaVuSerif-31" transform="translate(212.451)"/><use xlink:href="#DejaVuSerif-2e" transform="translate(276.074)"/><use xlink:href="#DejaVuSerif-33" transform="translate(307.861)"/><use xlink:href="#DejaVuSerif-2e" transform="translate(371.484)"/><use xlink:href="#DejaVuSerif-31" transform="translate(403.271)"/><use xlink:href="#DejaVuSerif-2d" transform="translate(498.682)"/><use xlink:href="#DejaVuSerif-31" transform="translate(532.47)"/></g><g id="text_23" style="fill:#222" transform="matrix(.095 0 0 -.095 372.583 313.04)"><defs><path id="DejaVuSerif-Bold-6c" d="M1797 378h475V0H219v378h472v4110H219v375h1578z" transform="scale(.01563)"/><path id="DejaVuSerif-Bold-34" d="M4084 0H1516v378h693v850H263v360l1953 3162h1175V1631h800v-403h-800V378h693zM2209 1631v2266L819 1631z" transform="scale(.01563)"/><path id="DejaVuSerif-Bold-66" d="M3097 4031h-350q-25 244-142 363t-333 119q-250 0-363-180-112-180-112-583v-428h834v-378h-834V378h641V0H219v378h472v2566H197v378h494v416q0 553 353 839t1037 286q266 0 519-30t497-89z" transform="scale(.01563)"/></defs><use xlink:href="#DejaVuSerif-Bold-6c"/><use xlink:href="#DejaVuSerif-Bold-7a" transform="translate(37.988)"/><use xlink:href="#DejaVuSerif-Bold-34" transform="translate(94.775)"/><use xlink:href="#DejaVuSerif-Bold-28" transform="translate(199.17)"/><use xlink:href="#DejaVuSerif-Bold-72" transform="translate(246.484)"/><use xlink:href="#DejaVuSerif-Bold-65" transform="translate(299.17)"/><use xlink:href="#DejaVuSerif-Bold-66" transform="translate(362.793)"/><use xlink:href="#DejaVuSerif-Bold-29" transform="translate(405.81)"/></g><g id="text_24" style="fill:#f02020" transform="matrix(.105 0 0 -.105 642.887 85.201)"><defs><path id="DejaVuSerif-Bold-2d" d="M347 2138h1962v-844H347z" transform="scale(.01563)"/><path id="DejaVuSerif-Bold-31" d="M878 0v378h875v3775l-972-575v466l1172 706h985V378h878V0z" transform="scale(.01563)"/></defs><use xlink:href="#DejaVuSerif-Bold-7a"/><use xlink:href="#DejaVuSerif-Bold-78" transform="translate(56.787)"/><use xlink:href="#DejaVuSerif-Bold-63" transform="translate(116.406)"/><use xlink:href="#DejaVuSerif-Bold-2d" transform="translate(212.11)"/><use xlink:href="#DejaVuSerif-Bold-31" transform="translate(253.613)"/></g><g id="text_25" style="fill:#f02020" transform="matrix(.105 0 0 -.105 490.104 143.139)"><defs><path id="DejaVuSerif-Bold-32" d="M844 3513H469v1006q381 115 754 173 374 58 755 58 891 0 1389-364 499-364 499-1014 0-463-275-830t-1050-870L1241 819h2209v550h428V0H428v763l691 478q884 609 1178 1037t294 1000q0 541-224 823-223 283-651 283-369 0-591-223t-281-648" transform="scale(.01563)"/></defs><use xlink:href="#DejaVuSerif-Bold-7a"/><use xlink:href="#DejaVuSerif-Bold-78" transform="translate(56.787)"/><use xlink:href="#DejaVuSerif-Bold-63" transform="translate(116.406)"/><use xlink:href="#DejaVuSerif-Bold-2d" transform="translate(212.11)"/><use xlink:href="#DejaVuSerif-Bold-32" transform="translate(253.613)"/></g><g id="text_26" style="fill:#f02020" transform="matrix(.105 0 0 -.105 338.6 231.54)"><defs><path id="DejaVuSerif-Bold-33" d="M550 4531q413 110 800 164 388 55 756 55 844 0 1295-302 452-301 452-864 0-421-260-684-259-262-759-353 610-97 910-416 300-318 300-872 0-653-518-1002Q3009-91 2028-91q-369 0-761 63-392 62-820 187v1025h378q34-443 278-676t675-233q475 0 734 264 260 264 260 749 0 506-271 781-270 275-767 275h-206v375h163q459 0 690 212 232 213 232 635 0 397-218 607-217 211-623 211-369 0-585-202-215-201-259-585H550z" transform="scale(.01563)"/></defs><use xlink:href="#DejaVuSerif-Bold-7a"/><use xlink:href="#DejaVuSerif-Bold-78" transform="translate(56.787)"/><use xlink:href="#DejaVuSerif-Bold-63" transform="translate(116.406)"/><use xlink:href="#DejaVuSerif-Bold-2d" transform="translate(212.11)"/><use xlink:href="#DejaVuSerif-Bold-33" transform="translate(253.613)"/></g><g id="text_27" style="fill:#f02020" transform="matrix(.105 0 0 -.105 277.763 240.938)"><use xlink:href="#DejaVuSerif-Bold-7a"/><use xlink:href="#DejaVuSerif-Bold-78" transform="translate(56.787)"/><use xlink:href="#DejaVuSerif-Bold-63" transform="translate(116.406)"/><use xlink:href="#DejaVuSerif-Bold-2d" transform="translate(212.11)"/><use xlink:href="#DejaVuSerif-Bold-34" transform="translate(253.613)"/></g><g id="text_28" style="fill:#f02020" transform="matrix(.105 0 0 -.105 231.609 252.419)"><defs><path id="DejaVuSerif-Bold-35" d="M3609 4666v-819H1113V2822q206 159 459 240 253 82 534 82 863 0 1363-436t500-1186q0-763-500-1188T2069-91q-381 0-758 63-377 62-786 194v1018h375q19-459 239-684t652-225q459 0 681 308t222 939q0 622-218 929-217 308-657 308-238 0-424-98t-345-305H738v2310z" transform="scale(.01563)"/></defs><use xlink:href="#DejaVuSerif-Bold-7a"/><use xlink:href="#DejaVuSerif-Bold-78" transform="translate(56.787)"/><use xlink:href="#DejaVuSerif-Bold-63" transform="translate(116.406)"/><use xlink:href="#DejaVuSerif-Bold-2d" transform="translate(212.11)"/><use xlink:href="#DejaVuSerif-Bold-35" transform="translate(253.613)"/></g><g id="text_29" style="fill:#f02020" transform="matrix(.105 0 0 -.105 154.374 269.693)"><defs><path id="DejaVuSerif-Bold-36" d="M1575 2766q203 162 454 243 252 82 549 82 716 0 1123-419 408-419 408-1150 0-772-459-1193Q3191-91 2344-91q-956 0-1449 577-492 577-492 1695 0 1272 547 1920 547 649 1622 649 281 0 603-47t691-140v-825h-378q-79 318-296 482t-561 164q-556 0-805-381-248-381-251-1237m697-2491q322 0 459 273 138 274 138 949t-138 948q-137 274-459 274t-458-274q-136-273-136-948t136-949q136-273 458-273" transform="scale(.01563)"/></defs><use xlink:href="#DejaVuSerif-Bold-7a"/><use xlink:href="#DejaVuSerif-Bold-78" transform="translate(56.787)"/><use xlink:href="#DejaVuSerif-Bold-63" transform="translate(116.406)"/><use xlink:href="#DejaVuSerif-Bold-2d" transform="translate(212.11)"/><use xlink:href="#DejaVuSerif-Bold-36" transform="translate(253.613)"/></g><g id="text_30"><g transform="matrix(.13 0 0 -.13 106.24 17.078)"><defs><path id="DejaVuSerif-Bold-76" d="M1428 0 250 2944h-366v378h1907v-378h-403l840-2100 838 2100h-435v378h1247v-378h-384L2316 0z" transform="scale(.01563)"/><path id="DejaVuSerif-Bold-2e" d="M519 506q0 244 175 419t419 175q246 0 421-175t175-419q0-247-175-422T1113-91Q869-91 694 84T519 506" transform="scale(.01563)"/><path id="DejaVuSerif-Bold-3a" d="M588 2541q0 247 173 422t417 175 419-177 175-420q0-244-174-416-173-172-420-172t-419 172q-171 172-171 416m0-2035q0 244 173 419t417 175 419-175 175-419q0-247-175-422T1178-91 761 84 588 506" transform="scale(.01563)"/><path id="DejaVuSerif-Bold-5a" d="M238 0v441l2784 3797H788v-697H359v1125h4050v-441L1656 428h2357v653h428V0z" transform="scale(.01563)"/><path id="DejaVuSerif-Bold-58" d="M2169 1797 1197 378h575V0H116v378h575l1228 1785L459 4288H31v378h2319v-378h-512l903-1313 893 1313h-543v378h1625v-378h-575L2988 2613 4519 378h440V0H2631v378h519z" transform="scale(.01563)"/><path id="DejaVuSerif-Bold-30" d="M2228 275q375 0 514 340 139 341 139 1713 0 1363-139 1709-139 347-514 347t-514-341q-139-340-139-1715 0-1372 139-1713 139-340 514-340m0-366q-934 0-1431 623-497 624-497 1796t497 1797 1431 625q931 0 1428-625t497-1797-497-1796Q3159-91 2228-91" transform="scale(.01563)"/><path id="DejaVuSerif-Bold-41" d="M-50 0v378h381l1757 4288h746L4594 378h444V0H2853v378h456l-384 953H1172L781 378h557V0zm1375 1709h1447l-719 1785z" transform="scale(.01563)"/></defs><use xlink:href="#DejaVuSerif-Bold-44"/><use xlink:href="#DejaVuSerif-Bold-65" transform="translate(86.719)"/><use xlink:href="#DejaVuSerif-Bold-63" transform="translate(150.342)"/><use xlink:href="#DejaVuSerif-Bold-6f" transform="translate(211.23)"/><use xlink:href="#DejaVuSerif-Bold-6d" transform="translate(277.93)"/><use xlink:href="#DejaVuSerif-Bold-70" transform="translate(383.74)"/><use xlink:href="#DejaVuSerif-Bold-72" transform="translate(453.662)"/><use xlink:href="#DejaVuSerif-Bold-65" transform="translate(506.348)"/><use xlink:href="#DejaVuSerif-Bold-73" transform="translate(569.97)"/><use xlink:href="#DejaVuSerif-Bold-73" transform="translate(626.27)"/><use xlink:href="#DejaVuSerif-Bold-69" transform="translate(682.568)"/><use xlink:href="#DejaVuSerif-Bold-6f" transform="translate(720.557)"/><use xlink:href="#DejaVuSerif-Bold-6e" transform="translate(787.256)"/><use xlink:href="#DejaVuSerif-Bold-53" transform="translate(894.775)"/><use xlink:href="#DejaVuSerif-Bold-70" transform="translate(966.992)"/><use xlink:href="#DejaVuSerif-Bold-65" transform="translate(1036.914)"/><use xlink:href="#DejaVuSerif-Bold-65" transform="translate(1100.537)"/><use xlink:href="#DejaVuSerif-Bold-64" transform="translate(1164.16)"/><use xlink:href="#DejaVuSerif-Bold-76" transform="translate(1268.896)"/><use xlink:href="#DejaVuSerif-Bold-73" transform="translate(1327.002)"/><use xlink:href="#DejaVuSerif-Bold-2e" transform="translate(1383.3)"/><use xlink:href="#DejaVuSerif-Bold-43" transform="translate(1452.93)"/><use xlink:href="#DejaVuSerif-Bold-6f" transform="translate(1532.52)"/><use xlink:href="#DejaVuSerif-Bold-6d" transform="translate(1599.219)"/><use xlink:href="#DejaVuSerif-Bold-70" transform="translate(1705.03)"/><use xlink:href="#DejaVuSerif-Bold-72" transform="translate(1774.951)"/><use xlink:href="#DejaVuSerif-Bold-65" transform="translate(1827.637)"/><use xlink:href="#DejaVuSerif-Bold-73" transform="translate(1891.26)"/><use xlink:href="#DejaVuSerif-Bold-73" transform="translate(1947.559)"/><use xlink:href="#DejaVuSerif-Bold-65" transform="translate(2003.857)"/><use xlink:href="#DejaVuSerif-Bold-64" transform="translate(2067.48)"/><use xlink:href="#DejaVuSerif-Bold-53" transform="translate(2172.217)"/><use xlink:href="#DejaVuSerif-Bold-69" transform="translate(2244.434)"/><use xlink:href="#DejaVuSerif-Bold-7a" transform="translate(2282.422)"/><use xlink:href="#DejaVuSerif-Bold-65" transform="translate(2339.209)"/><use xlink:href="#DejaVuSerif-Bold-3a" transform="translate(2402.832)"/><use xlink:href="#DejaVuSerif-Bold-5a" transform="translate(2474.56)"/><use xlink:href="#DejaVuSerif-Bold-58" transform="translate(2547.559)"/><use xlink:href="#DejaVuSerif-Bold-43" transform="translate(2623.396)"/><use xlink:href="#DejaVuSerif-Bold-30" transform="translate(2737.8)"/><use xlink:href="#DejaVuSerif-Bold-2e" transform="translate(2807.38)"/><use xlink:href="#DejaVuSerif-Bold-31" transform="translate(2842.195)"/><use xlink:href="#DejaVuSerif-Bold-31" transform="translate(2911.775)"/><use xlink:href="#DejaVuSerif-Bold-2e" transform="translate(2981.355)"/><use xlink:href="#DejaVuSerif-Bold-30" transform="translate(3016.17)"/><use xlink:href="#DejaVuSerif-Bold-76" transform="translate(3120.564)"/><use xlink:href="#DejaVuSerif-Bold-73" transform="translate(3178.67)"/><use xlink:href="#DejaVuSerif-Bold-2e" transform="translate(3234.969)"/><use xlink:href="#DejaVuSerif-Bold-53" transform="translate(3304.598)"/><use xlink:href="#DejaVuSerif-Bold-74" transform="translate(3376.814)"/><use xlink:href="#DejaVuSerif-Bold-61" transform="translate(3423.006)"/><use xlink:href="#DejaVuSerif-Bold-74" transform="translate(3487.8)"/><use xlink:href="#DejaVuSerif-Bold-65" transform="translate(3533.992)"/><use xlink:href="#DejaVuSerif-Bold-2d" transform="translate(3597.615)"/><use xlink:href="#DejaVuSerif-Bold-6f" transform="translate(3639.12)"/><use xlink:href="#DejaVuSerif-Bold-66" transform="translate(3705.818)"/><use xlink:href="#DejaVuSerif-Bold-2d" transform="translate(3745.21)"/><use xlink:href="#DejaVuSerif-Bold-74" transform="translate(3786.715)"/><use xlink:href="#DejaVuSerif-Bold-68" transform="translate(3832.906)"/><use xlink:href="#DejaVuSerif-Bold-65" transform="translate(3905.611)"/><use xlink:href="#DejaVuSerif-Bold-2d" transform="translate(3969.234)"/><use xlink:href="#DejaVuSerif-Bold-41" transform="translate(4010.738)"/><use xlink:href="#DejaVuSerif-Bold-72" transform="translate(4088.326)"/><use xlink:href="#DejaVuSerif-Bold-74" transform="translate(4141.012)"/></g><g transform="matrix(.13 0 0 -.13 306.328 31.635)"><defs><path id="DejaVuSerif-Bold-4d" d="M269 0v378h594v3910H269v378h1925l1331-2994 1338 2994h1921v-378h-596V378h596V0H4384v378h594v3560L3531 684h-790L1300 3938V378h594V0z" transform="scale(.01563)"/><path id="DejaVuSerif-Bold-2c" d="M84-616Q409-353 562-28q154 325 154 756v269h890v-25q0-691-289-1189-289-499-889-839z" transform="scale(.01563)"/></defs><use xlink:href="#DejaVuSerif-Bold-28"/><use xlink:href="#DejaVuSerif-Bold-41" transform="translate(47.314)"/><use xlink:href="#DejaVuSerif-Bold-52" transform="translate(124.902)"/><use xlink:href="#DejaVuSerif-Bold-4d" transform="translate(208.008)"/><use xlink:href="#DejaVuSerif-Bold-36" transform="translate(318.701)"/><use xlink:href="#DejaVuSerif-Bold-34" transform="translate(388.281)"/><use xlink:href="#DejaVuSerif-Bold-2c" transform="translate(457.861)"/><use xlink:href="#DejaVuSerif-Bold-41" transform="translate(527.49)"/><use xlink:href="#DejaVuSerif-Bold-70" transform="translate(605.078)"/><use xlink:href="#DejaVuSerif-Bold-70" transform="translate(675)"/><use xlink:href="#DejaVuSerif-Bold-6c" transform="translate(744.922)"/><use xlink:href="#DejaVuSerif-Bold-65" transform="translate(782.91)"/><use xlink:href="#DejaVuSerif-Bold-4d" transform="translate(881.348)"/><use xlink:href="#DejaVuSerif-Bold-32" transform="translate(992.041)"/><use xlink:href="#DejaVuSerif-Bold-29" transform="translate(1061.621)"/></g></g><g id="PathCollection_1"><defs><path id="m2e121a1fd7" d="m0-4.61-4.61 9.22h9.22z" style="stroke:#fff"/></defs><g clip-path="url(#p7f5670df3d)"><use xlink:href="#m2e121a1fd7" x="646.462" y="276.613" style="fill:#ff7f0e;stroke:#fff"/><use xlink:href="#m2e121a1fd7" x="154.476" y="305.849" style="fill:#ff7f0e;stroke:#fff"/><use xlink:href="#m2e121a1fd7" x="216.242" y="323.23" style="fill:#ff7f0e;stroke:#fff"/><use xlink:href="#m2e121a1fd7" x="369.467" y="339.597" style="fill:#ff7f0e;stroke:#fff"/><use xlink:href="#m2e121a1fd7" x="236.996" y="358.98" style="fill:#ff7f0e;stroke:#fff"/><use xlink:href="#m2e121a1fd7" x="111.619" y="378.524" style="fill:#ff7f0e;stroke:#fff"/><use xlink:href="#m2e121a1fd7" x="148.762" y="415.797" style="fill:#ff7f0e;stroke:#fff"/></g></g><g id="PathCollection_2"><defs><path id="m5c7753df69" d="M-5.244 5.244H5.244V-5.244H-5.244z" style="stroke:#fff;stroke-width:1.2"/></defs><g clip-path="url(#p7f5670df3d)"><use xlink:href="#m5c7753df69" x="364.583" y="299.041" style="fill:#222;stroke:#fff;stroke-width:1.2"/></g></g><g id="legend_1"><path id="patch_7" d="M46.988 95.67H192.76V48.635H46.988z" style="fill:#fff;stroke:#222;stroke-width:.8;stroke-linejoin:miter"/><use xlink:href="#m2e121a1fd7" id="PathCollection_3" x="60.988" y="57.609" style="fill:#ff7f0e;stroke:#fff"/><g id="text_31" transform="matrix(.1 0 0 -.1 78.988 60.234)"><defs><path id="DejaVuSerif-43" d="M4513 1234q-207-653-693-989T2591-91q-457 0-848 156-390 157-693 460-350 350-521 795-170 446-170 1008 0 1088 628 1755 629 667 1657 667 381 0 812-100 432-100 928-303V3272h-353q-115 587-464 865-348 279-976 279-747 0-1132-530-384-530-384-1558 0-1025 384-1555 385-529 1132-529 522 0 859 248 338 249 488 742z" transform="scale(.01563)"/><path id="DejaVuSerif-6f" d="M1925 219q463 0 698 365 236 366 236 1079 0 712-236 1076-235 364-698 364-462 0-698-364T991 1663q0-713 237-1079 238-365 697-365m0-310q-725 0-1166 480-440 480-440 1274 0 793 439 1271 439 479 1167 479t1167-479q439-478 439-1271 0-794-439-1274T1925-91" transform="scale(.01563)"/><path id="DejaVuSerif-6d" d="M3316 2675q165 366 423 552t602 186q522 0 778-324 256-323 256-976V331h519V0H4300v331h500v1716q0 509-150 725t-497 216q-384 0-586-291-201-291-201-847V331h500V0H2291v331h500v1738q0 497-150 708t-497 211q-385 0-587-291-201-291-201-847V331h500V0H263v331h518v2663H231v328h1125v-591q160 332 406 507 247 175 560 175 387 0 646-193 260-192 348-545" transform="scale(.01563)"/><path id="DejaVuSerif-65" d="M3469 1600H991v-25q0-672 253-1014t747-342q378 0 620 198 242 199 339 589h463q-138-547-509-822-370-275-973-275-728 0-1170 480T319 1663q0 787 434 1268 435 482 1141 482 753 0 1156-465 403-464 419-1348m-678 331q-19 582-246 877-226 295-651 295-397 0-625-297t-278-875z" transform="scale(.01563)"/><path id="DejaVuSerif-72" d="M3059 3328v-831h-331q-15 247-137 369t-357 122q-425 0-652-294-226-294-226-844V331h666V0H263v331h518v2663H231v328h1125v-591q169 347 434 514 266 168 648 168 140 0 295-22t326-63" transform="scale(.01563)"/></defs><use xlink:href="#DejaVuSerif-43"/><use xlink:href="#DejaVuSerif-6f" transform="translate(76.514)"/><use xlink:href="#DejaVuSerif-6d" transform="translate(136.719)"/><use xlink:href="#DejaVuSerif-70" transform="translate(231.543)"/><use xlink:href="#DejaVuSerif-65" transform="translate(295.557)"/><use xlink:href="#DejaVuSerif-74" transform="translate(354.736)"/><use xlink:href="#DejaVuSerif-69" transform="translate(394.922)"/><use xlink:href="#DejaVuSerif-74" transform="translate(426.904)"/><use xlink:href="#DejaVuSerif-6f" transform="translate(467.09)"/><use xlink:href="#DejaVuSerif-72" transform="translate(527.295)"/><use xlink:href="#DejaVuSerif-73" transform="translate(575.098)"/></g><use xlink:href="#m5c7753df69" id="PathCollection_4" x="60.988" y="72.287" style="fill:#222;stroke:#fff;stroke-width:1.2"/><g id="text_32" transform="matrix(.1 0 0 -.1 78.988 74.912)"><defs><path id="DejaVuSerif-28" d="M2041-997Q1281-656 893 83 506 822 506 1931q0 1113 387 1852 388 739 1148 1080v-307q-482-331-691-933-209-601-209-1692 0-1087 209-1689 209-601 691-933z" transform="scale(.01563)"/><path id="DejaVuSerif-29" d="M453-997v306q481 332 692 933 211 602 211 1689 0 1091-211 1692-211 602-692 933v307q763-341 1150-1080 388-739 388-1852 0-1109-388-1848Q1216-656 453-997" transform="scale(.01563)"/></defs><use xlink:href="#DejaVuSerif-6c"/><use xlink:href="#DejaVuSerif-7a" transform="translate(31.982)"/><use xlink:href="#DejaVuSerif-34" transform="translate(84.668)"/><use xlink:href="#DejaVuSerif-31" transform="translate(180.078)"/><use xlink:href="#DejaVuSerif-2e" transform="translate(243.701)"/><use xlink:href="#DejaVuSerif-31" transform="translate(275.488)"/><use xlink:href="#DejaVuSerif-30" transform="translate(339.111)"/><use xlink:href="#DejaVuSerif-2e" transform="translate(402.734)"/><use xlink:href="#DejaVuSerif-30" transform="translate(434.521)"/><use xlink:href="#DejaVuSerif-28" transform="translate(529.932)"/><use xlink:href="#DejaVuSerif-72" transform="translate(568.945)"/><use xlink:href="#DejaVuSerif-65" transform="translate(616.748)"/><use xlink:href="#DejaVuSerif-66" transform="translate(675.928)"/><use xlink:href="#DejaVuSerif-65" transform="translate(712.94)"/><use xlink:href="#DejaVuSerif-72" transform="translate(772.12)"/><use xlink:href="#DejaVuSerif-65" transform="translate(819.922)"/><use xlink:href="#DejaVuSerif-6e" transform="translate(879.102)"/><use xlink:href="#DejaVuSerif-63" transform="translate(943.506)"/><use xlink:href="#DejaVuSerif-65" transform="translate(999.512)"/><use xlink:href="#DejaVuSerif-29" transform="translate(1058.691)"/></g><g id="PathCollection_5"><defs><path id="m4d82466324" d="M0 5.244A5.244 5.244 0 1 0 0-5.245 5.244 5.244 0 0 0 0 5.244z" style="stroke:#fff;stroke-width:1.3"/></defs><use xlink:href="#m4d82466324" x="60.988" y="86.965" style="fill:#f02020;stroke:#fff;stroke-width:1.3"/></g><g id="text_33" transform="matrix(.1 0 0 -.1 78.988 89.59)"><defs><path id="DejaVuSerif-5a" d="M288 0v225l2906 4056H781v-697H397v1082h3687v-225L1178 384h2638v654h381V0z" transform="scale(.01563)"/><path id="DejaVuSerif-58" d="M2119 1997 978 331h603V0H38v331h537l1344 1960L556 4331H56v335h1850v-335h-550l1000-1503 1028 1503h-600v335h1529v-335h-525L2553 2534 4025 331h500V0H2675v331h556z" transform="scale(.01563)"/></defs><use xlink:href="#DejaVuSerif-5a"/><use xlink:href="#DejaVuSerif-58" transform="translate(69.482)"/><use xlink:href="#DejaVuSerif-43" transform="translate(138.924)"/><use xlink:href="#DejaVuSerif-30" transform="translate(247.225)"/><use xlink:href="#DejaVuSerif-2e" transform="translate(310.848)"/><use xlink:href="#DejaVuSerif-31" transform="translate(342.635)"/><use xlink:href="#DejaVuSerif-31" transform="translate(406.258)"/><use xlink:href="#DejaVuSerif-2e" transform="translate(469.88)"/><use xlink:href="#DejaVuSerif-30" transform="translate(501.668)"/></g></g><g id="PathCollection_6" clip-path="url(#p7f5670df3d)"><use xlink:href="#m4d82466324" x="633.887" y="92.201" style="fill:#f02020;stroke:#fff;stroke-width:1.3"/><use xlink:href="#m4d82466324" x="481.104" y="150.139" style="fill:#f02020;stroke:#fff;stroke-width:1.3"/><use xlink:href="#m4d82466324" x="329.599" y="238.54" style="fill:#f02020;stroke:#fff;stroke-width:1.3"/><use xlink:href="#m4d82466324" x="268.763" y="247.938" style="fill:#f02020;stroke:#fff;stroke-width:1.3"/><use xlink:href="#m4d82466324" x="222.609" y="259.419" style="fill:#f02020;stroke:#fff;stroke-width:1.3"/><use xlink:href="#m4d82466324" x="145.374" y="276.693" style="fill:#f02020;stroke:#fff;stroke-width:1.3"/></g></g><g id="text_34" style="fill:#3a3a3a" transform="matrix(.095 0 0 -.095 241.995 479.595)"><defs><path id="DejaVuSerif-Italic-53" d="m184 225 207 1063 359-4q-87-531 155-786 242-254 839-254 556 0 892 220t417 642q66 338-77 519-142 181-676 353l-578 185q-631 203-845 506t-111 831q115 594 601 922t1249 328q325 0 698-71 374-70 783-204l-191-994h-353q41 494-192 714-233 221-798 221-494 0-791-202-297-201-372-586-66-334 90-525 157-190 751-378l543-172q597-190 809-486 213-295 116-792-131-678-633-1022Q2575-91 1716-91q-385 0-768 79-382 78-764 237" transform="scale(.01563)"/><path id="DejaVuSerif-Italic-69" d="M1009 4353q29 144 154 250t271 106q144 0 229-106 65-81 65-181 0-34-9-69-28-147-152-250-123-103-270-103t-231 103q-63 78-63 178 0 35 6 72M963 331h543L1444 0H325l578 2988H353l66 334h1125z" transform="scale(.01563)"/><path id="DejaVuSerif-Italic-6c" d="M903 331h544L1384 0H266l881 4531H594l62 332h1128z" transform="scale(.01563)"/><path id="DejaVuSerif-Italic-65" d="M938 1275q-13-119-13-225 0-294 106-487 185-344 678-344 363 0 541 109 319 197 394 450h422q-125-397-591-675-325-194-969-194-643 0-990 479-244 334-244 818 0 213 47 453 153 791 681 1272 528 482 1278 482 1222 0 1222-866 0-634-641-944-653-315-1921-328m1603 700q350 206 350 594 0 534-710 534-418 0-709-319-291-318-469-1178 1003 47 1538 369" transform="scale(.01563)"/><path id="DejaVuSerif-Italic-73" d="M222 959h331q-12-90-12-171 0-569 772-569 775 0 887 569 9 56 9 156 0 97-106 214t-553 270l-391 141q-400 137-530 313-129 177-129 381 0 81 16 175 90 456 474 715 385 260 941 260 553 0 1135-269l-141-725h-331q12 72 12 134 0 228-158 389-157 161-523 161-734 0-834-512-13-53-13-147 0-97 101-207 102-109 499-240l428-141q444-147 610-368 115-157 115-310 0-656-525-997Q1894-91 1262-91 631-91 72 184z" transform="scale(.01563)"/><path id="DejaVuSerif-Italic-61" d="M2325 519Q1909-91 1238-91q-550 0-829 372-193 263-193 638 0 159 34 337 213 1103 981 1672 653 485 1444 485 531 0 713-91L2806 331h494L3238 0H2225zM822 938q0-669 647-669 394 0 661 314t386 914l290 1506q0 91-250 91-600 0-1065-469-463-472-628-1328-41-200-41-359" transform="scale(.01563)"/><path id="DejaVuSerif-Italic-63" d="M3163 997q-225-531-627-810-402-278-952-278-725 0-1071 479-241 334-241 815 0 216 47 460 156 796 689 1273t1258 477q315 0 613-74 299-73 584-223l-163-850h-334v81q0 375-163 556-181 200-590 200-466 0-774-361T991 1663q-63-329-63-585 0-300 88-497 165-362 634-362 372 0 631 193 260 194 419 585z" transform="scale(.01563)"/><path id="DejaVuSerif-Italic-6f" d="M1644 219q462 0 770 365 308 366 445 1079 63 325 63 578 0 300-88 497-165 365-628 365-462 0-770-364T991 1663q-63-325-63-575 0-304 91-504 165-365 625-365m-60-310Q859-91 513 388q-241 334-241 815 0 216 47 460 153 793 686 1271 533 479 1261 479t1075-479q237-331 237-812 0-216-47-459-153-794-686-1274Q2313-91 1584-91" transform="scale(.01563)"/><path id="DejaVuSerif-Italic-72" d="m3375 3328-162-831h-332q10 62 10 116 0 162-75 253-97 122-332 122-425 0-709-294t-391-844L1025 0H450l581 2994H481l63 328h1125l-113-591q235 347 533 514 299 168 680 168 140 0 290-22t316-63" transform="scale(.01563)"/><path id="DejaVuSerif-Italic-70" d="m1466 1825-66-328q-47-247-47-444 0-284 100-472 169-312 606-312 441 0 736 353 296 353 430 1041 59 315 59 562 0 288-84 478-159 350-600 350-437 0-728-316-291-315-406-912m-350 1163H563l65 334h1128l-100-519q228 313 519 461 291 149 675 149 613 0 903-485 194-319 194-765 0-235-50-500-153-782-635-1268Q2781-91 2169-91q-385 0-618 148-232 149-338 462L850-1331H275z" transform="scale(.01563)"/><path id="DejaVuSerif-Italic-75" d="M3097 3322h575L3091 331h543L3572 0H2453l113 588q-225-332-511-506-286-173-621-173-553 0-753 316-122 188-122 509 0 210 54 475l343 1779H438l65 334h1097l-375-1934q-62-322-62-535 0-190 50-297 103-225 484-225 400 0 667 294t374 853z" transform="scale(.01563)"/><path id="DejaVuSerif-Italic-7c" d="M1331 4891v-6400H825v6400z" transform="scale(.01563)"/><path id="DejaVuSerif-Italic-7a" d="M2550 3047q338 0 666 275h187l-50-269L1081 684q32-9 122-37 106-34 213-103l153-94q294-178 506-178 409 0 891 469l-75-378q-535-526-941-526-247 7-594 222-347 216-565 216-338 0-666-275H-63l50 269 2276 2365q-35 13-125 41-107 34-213 103l-153 94q-294 178-506 178-410 0-891-469l75 378q534 525 941 525 247-6 593-222 347-215 566-215" transform="scale(.01563)"/><path id="DejaVuSerif-Italic-62" d="M1153 4531H600l66 332h1128l-400-2060q228 313 518 461 291 149 676 149 612 0 906-485 194-319 194-765 0-235-54-500-153-782-634-1268T1906-91q-384 0-617 148-233 149-339 462L850 0H275zm-12-3034q-50-247-50-444 0-284 100-472 168-312 606-312 441 0 736 353t430 1041q62 315 62 562 0 288-87 478-157 350-600 350-438 0-729-316-290-315-406-912z" transform="scale(.01563)"/><path id="DejaVuSerif-Italic-6e" d="m450 0 581 2988H481l63 334h1125l-113-591q225 338 512 510 288 172 626 172 550 0 750-316 119-191 119-509 0-210-54-475L3163 331h512L3613 0H2522l375 1931q62 322 62 538 0 190-50 300-106 225-484 225-400 0-666-293-265-292-375-851L1025 0z" transform="scale(.01563)"/><path id="DejaVuSerif-Italic-68" d="m309 0 882 4531H641l62 332h1125l-412-2132q225 338 512 510 288 172 625 172 550 0 747-316 122-191 122-509 0-210-53-475L3022 331h512L3472 0H2381l375 1931q63 322 63 538 0 190-50 294-103 225-485 225-400 0-667-291t-373-847L884 0z" transform="scale(.01563)"/><path id="DejaVuSerif-Italic-32" d="M1050 3553H700l163 831q368 179 726 272 358 94 683 94 728 0 1081-353t235-959q-132-685-1275-1638-88-72-135-109L772 513h1947l112 575h366L2984 0H-25l66 341 1690 1412q560 469 836 861 277 392 361 824 91 471-103 737t-625 266q-447 0-733-222t-417-666" transform="scale(.01563)"/><path id="DejaVuSerif-Italic-2e" d="M664 29q-95 121-61 296 35 175 177 297t320 122q172 0 270-122 99-122 64-297-34-172-180-294Q1109-91 938-91 759-91 664 29" transform="scale(.01563)"/><path id="DejaVuSerif-Italic-31" d="m447 0 66 331h812l753 3882-1059-610 81 410 1281 737h432L1953 331h813L2700 0z" transform="scale(.01563)"/><path id="DejaVuSerif-Italic-67" d="M3822 3322 3188 72q-144-744-607-1103-503-391-1200-391-328 0-616 60-287 59-540 178l138 696h300q-10-325 171-475 182-150 572-150 507 0 797 288 291 281 410 897l87 447q-228-313-519-462-290-148-656-148-550 0-828 372-175 235-194 560-12 190 31 415 216 1103 982 1672 653 481 1415 485 700 3 891-91m-638-334q-3 106-340 106-610 0-1069-469-459-472-628-1328-47-253-34-444 12-194 90-325 153-259 553-259 438 0 728 314 291 314 407 914l62 328z" transform="scale(.01563)"/><path id="DejaVuSerif-Italic-2d" d="M328 1959h1600l-94-487H234z" transform="scale(.01563)"/><path id="DejaVuSerif-Italic-74" d="M856 2988H350l66 334h506l200 1031h578l-200-1031h1081l-65-334H1434L1025 878q-47-247-47-390 0-100 22-150 59-119 278-119 225 0 355 132 130 133 192 430h434q-112-453-375-663-262-209-715-209-497 0-663 222-100 135-100 385 0 159 41 362z" transform="scale(.01563)"/><path id="DejaVuSerif-Italic-64" d="M3841 4863 2897 0h-575l100 519q-231-313-520-462-289-148-674-148-612 0-906 485-197 322-197 772 0 231 53 497 153 781 634 1265 482 485 1097 485 385 0 616-149 231-148 341-461l334 1728h-544l66 332zM2613 1497l62 328q47 244 47 441 0 284-100 472-166 315-603 315-444 0-740-350-295-350-429-1040-62-316-62-560 0-290 87-481 156-353 600-353 438 0 728 314 291 314 410 914" transform="scale(.01563)"/></defs><use xlink:href="#DejaVuSerif-Italic-53"/><use xlink:href="#DejaVuSerif-Italic-69" transform="translate(68.506)"/><use xlink:href="#DejaVuSerif-Italic-6c" transform="translate(100.488)"/><use xlink:href="#DejaVuSerif-Italic-65" transform="translate(132.47)"/><use xlink:href="#DejaVuSerif-Italic-73" transform="translate(191.65)"/><use xlink:href="#DejaVuSerif-Italic-69" transform="translate(242.969)"/><use xlink:href="#DejaVuSerif-Italic-61" transform="translate(274.951)"/><use xlink:href="#DejaVuSerif-Italic-63" transform="translate(366.357)"/><use xlink:href="#DejaVuSerif-Italic-6f" transform="translate(422.363)"/><use xlink:href="#DejaVuSerif-Italic-72" transform="translate(482.568)"/><use xlink:href="#DejaVuSerif-Italic-70" transform="translate(530.371)"/><use xlink:href="#DejaVuSerif-Italic-75" transform="translate(594.385)"/><use xlink:href="#DejaVuSerif-Italic-73" transform="translate(658.79)"/><use xlink:href="#DejaVuSerif-Italic-7c" transform="translate(773.682)"/><use xlink:href="#DejaVuSerif-Italic-6c" transform="translate(870.947)"/><use xlink:href="#DejaVuSerif-Italic-7a" transform="translate(902.93)"/><use xlink:href="#DejaVuSerif-Italic-62" transform="translate(955.615)"/><use xlink:href="#DejaVuSerif-Italic-65" transform="translate(1019.629)"/><use xlink:href="#DejaVuSerif-Italic-6e" transform="translate(1078.809)"/><use xlink:href="#DejaVuSerif-Italic-63" transform="translate(1143.213)"/><use xlink:href="#DejaVuSerif-Italic-68" transform="translate(1199.219)"/><use xlink:href="#DejaVuSerif-Italic-32" transform="translate(1295.41)"/><use xlink:href="#DejaVuSerif-Italic-2e" transform="translate(1359.033)"/><use xlink:href="#DejaVuSerif-Italic-32" transform="translate(1390.82)"/><use xlink:href="#DejaVuSerif-Italic-2e" transform="translate(1454.443)"/><use xlink:href="#DejaVuSerif-Italic-31" transform="translate(1486.23)"/><use xlink:href="#DejaVuSerif-Italic-7c" transform="translate(1581.64)"/><use xlink:href="#DejaVuSerif-Italic-73" transform="translate(1678.906)"/><use xlink:href="#DejaVuSerif-Italic-69" transform="translate(1730.225)"/><use xlink:href="#DejaVuSerif-Italic-6e" transform="translate(1762.207)"/><use xlink:href="#DejaVuSerif-Italic-67" transform="translate(1826.611)"/><use xlink:href="#DejaVuSerif-Italic-6c" transform="translate(1890.625)"/><use xlink:href="#DejaVuSerif-Italic-65" transform="translate(1922.607)"/><use xlink:href="#DejaVuSerif-Italic-2d" transform="translate(1981.787)"/><use xlink:href="#DejaVuSerif-Italic-74" transform="translate(2015.576)"/><use xlink:href="#DejaVuSerif-Italic-68" transform="translate(2055.762)"/><use xlink:href="#DejaVuSerif-Italic-72" transform="translate(2120.166)"/><use xlink:href="#DejaVuSerif-Italic-65" transform="translate(2167.969)"/><use xlink:href="#DejaVuSerif-Italic-61" transform="translate(2227.148)"/><use xlink:href="#DejaVuSerif-Italic-64" transform="translate(2286.768)"/><use xlink:href="#DejaVuSerif-Italic-65" transform="translate(2350.781)"/><use xlink:href="#DejaVuSerif-Italic-64" transform="translate(2409.96)"/></g></g><defs><clipPath id="p7f5670df3d"><path d="M41.988 43.635h672.84v378H41.988z"/></clipPath></defs></svg>